<?xml version="1.0" standalone="no"?>
<!DOCTYPE svg PUBLIC "-//W3C//DTD SVG 1.1//EN" "http://www.w3.org/Graphics/SVG/1.1/DTD/svg11.dtd" >
<svg xmlns="http://www.w3.org/2000/svg" xmlns:xlink="http://www.w3.org/1999/xlink" version="1.1">
<metadata></metadata>
<defs>
<font id="moderatregular" horiz-adv-x="1148" >
<font-face units-per-em="2048" ascent="1638" descent="-410" />
<missing-glyph horiz-adv-x="552" />
<glyph horiz-adv-x="0" />
<glyph unicode="&#xd;" horiz-adv-x="681" />
<glyph unicode=" "  horiz-adv-x="552" />
<glyph unicode="&#x09;" horiz-adv-x="552" />
<glyph unicode="&#xa0;" horiz-adv-x="552" />
<glyph unicode="!" horiz-adv-x="544" d="M152 111q0 51 35.5 86.5t87 35.5t86 -35.5t34.5 -86.5q0 -49 -34.5 -85t-86 -36t-87 35.5t-35.5 85.5zM178 1434h189l-29 -1037h-127z" />
<glyph unicode="&#x22;" horiz-adv-x="727" d="M106 1341q0 47 25 75t66 28q43 0 67.5 -27.5t24.5 -75.5q-1 -35 -15 -139l-32 -291h-86l-35 291q-14 104 -15 139zM438 1341q0 47 24.5 75t65.5 28t67 -27.5t26 -75.5q-1 -35 -15 -139l-33 -291h-88l-32 291q-14 104 -15 139z" />
<glyph unicode="#" horiz-adv-x="1425" d="M82 340v145h227l74 338h-190v146h221l75 342h162l-76 -342h408l76 342h164l-76 -342h196v-146h-227l-74 -338h191v-145h-223l-74 -340h-164l74 340h-408l-73 -340h-162l73 340h-194zM471 485h408l73 338h-407z" />
<glyph unicode="$" horiz-adv-x="1181" d="M135 379h187q23 -203 202 -238v469l-45 17q-147 53 -226 133t-79 215q0 143 97.5 236.5t252.5 113.5v170h150v-168q162 -18 259 -117.5t105 -251.5h-176q-20 178 -188 211v-436l41 -14q166 -59 245.5 -151.5t79.5 -237.5q0 -152 -102 -241t-264 -105v-168h-150v168 q-176 18 -277.5 120.5t-111.5 274.5zM360 985q0 -68 40 -114t124 -83v379q-74 -18 -119 -67t-45 -115zM674 139q78 14 128 62.5t50 124.5q0 152 -178 229v-416z" />
<glyph unicode="%" horiz-adv-x="1613" d="M135 1020q0 127 92 219t219 92t218.5 -92t91.5 -219t-91.5 -218t-218.5 -91t-219 91t-92 218zM256 0l891 1311h201l-891 -1311h-201zM285 1020q0 -70 44.5 -116t114.5 -46q72 0 118 45t46 117t-46 118t-118 46q-70 0 -114.5 -46t-44.5 -118zM858 291q0 127 92 218t219 91 t219.5 -91t92.5 -218t-92.5 -219t-219.5 -92t-219 92t-92 219zM1008 290.5q0 -69.5 45.5 -116.5t113.5 -47q72 0 118 46t46 117.5t-46 117t-118 45.5q-68 0 -113.5 -46.5t-45.5 -116z" />
<glyph unicode="&#x26;" horiz-adv-x="1411" d="M135 313q0 137 67.5 224.5t188.5 171.5l55 39q-55 57 -78.5 82.5t-63.5 79t-56.5 105.5t-16.5 109q0 135 106.5 232.5t272.5 97.5t272.5 -89t106.5 -230q0 -109 -63.5 -191t-184.5 -170l-67 -49l258 -279l174 244h186l-252 -360l308 -330h-199l-197 209 q-186 -229 -432 -229q-166 0 -275.5 93t-109.5 240zM311 328q0 -84 61.5 -140.5t155.5 -56.5q172 0 318 193l-295 313l-57 -43q-90 -68 -136.5 -127t-46.5 -139zM401 1120q0 -72 37 -131t131 -153l2 -2l64 45q88 61 137 119.5t49 129.5q0 82 -60.5 131.5t-148.5 49.5 q-94 0 -152.5 -53.5t-58.5 -135.5z" />
<glyph unicode="'" horiz-adv-x="395" d="M106 1341q0 47 25 75t66 28q43 0 67.5 -27.5t24.5 -75.5q-1 -35 -15 -139l-32 -291h-86l-35 291q-14 104 -15 139z" />
<glyph unicode="(" horiz-adv-x="628" d="M135 635q0 305 91 557t237 426l110 -82q-283 -371 -282 -901q-1 -526 282 -901l-110 -80q-145 174 -236.5 425t-91.5 556z" />
<glyph unicode=")" horiz-adv-x="628" d="M53 -266q285 375 285 901q0 530 -285 901l111 82q145 -172 237.5 -425t92.5 -558t-92.5 -556t-237.5 -425z" />
<glyph unicode="*" horiz-adv-x="862" d="M106 979l218 117l-218 116l62 105l211 -129l-8 246h121l-9 -246l211 129l60 -105l-215 -116l215 -117l-60 -105l-211 130l9 -246h-121l8 246l-211 -130z" />
<glyph unicode="+" horiz-adv-x="1134" d="M111 500v147h376v377h160v-377h375v-147h-375v-377h-160v377h-376z" />
<glyph unicode="," horiz-adv-x="509" d="M131 -203q115 94 117 193q-45 -4 -80 27.5t-35 87t35 90t88 34.5q61 0 95 -45t34 -116q0 -207 -203 -334z" />
<glyph unicode="-" horiz-adv-x="913" d="M82 559v156h752v-156h-752z" />
<glyph unicode="." horiz-adv-x="493" d="M125 111q0 51 36 86.5t87 35.5t86 -35.5t35 -86.5q0 -49 -35 -85t-86 -36t-87 35.5t-36 85.5z" />
<glyph unicode="/" horiz-adv-x="1015" d="M53 -102l735 1638h175l-734 -1638h-176z" />
<glyph unicode="0" horiz-adv-x="1236" d="M135 657q0 332 132 504t353.5 172t351.5 -173t130 -507t-131 -503.5t-350 -169.5q-221 0 -353.5 171t-132.5 506zM326 655q0 -260 81 -389t214 -129q131 0 211.5 130t80.5 388t-81.5 389.5t-213 131.5t-212 -130.5t-80.5 -390.5z" />
<glyph unicode="1" horiz-adv-x="755" d="M135 934v147h121q80 0 118 44t38 116v70h166v-1311h-185v934h-258z" />
<glyph unicode="2" horiz-adv-x="1128" d="M135 0v72q0 152 77 275.5t200 209.5l198 137q66 47 97.5 74t66.5 82t35 117q0 92 -61.5 150.5t-159.5 58.5q-121 0 -189.5 -79t-74.5 -177h-187q10 168 131 290.5t326 122.5q180 0 289.5 -98t109.5 -262q0 -217 -229 -375l-223 -156q-180 -127 -197 -286h643v-156h-852z " />
<glyph unicode="3" horiz-adv-x="1169" d="M135 362h180q14 -100 78 -164.5t182 -64.5q121 0 197 65.5t76 168t-70.5 167t-191.5 64.5h-119v145h111q104 0 166.5 60.5t62.5 161.5q0 98 -63.5 158.5t-165.5 60.5q-94 0 -162 -53.5t-86 -151.5h-178q10 160 136 257t296 97q172 0 288.5 -100t116.5 -262 q0 -193 -180 -285v-10q102 -33 163.5 -115t61.5 -201q0 -166 -127 -273t-329 -107q-197 0 -312.5 101t-130.5 281z" />
<glyph unicode="4" horiz-adv-x="1169" d="M82 299v90l590 922h190v-871h228v-141h-228v-299h-172v299h-608zM293 440h397v625h-14z" />
<glyph unicode="5" horiz-adv-x="1159" d="M135 371h174q10 -115 80 -179.5t180 -64.5q123 0 199 76t76 205q0 127 -73 209.5t-191 82.5q-174 0 -256 -143l-160 35l69 719h734v-154h-576l-45 -409q104 92 266 92q184 0 299 -121t115 -307q0 -197 -129 -314.5t-330 -117.5q-190 0 -306 106.5t-126 284.5z" />
<glyph unicode="6" horiz-adv-x="1103" d="M106 426q0 86 27 171t54.5 138t76.5 129l287 447h223l-352 -516q72 32 168 32q176 0 290.5 -116.5t114.5 -298.5q0 -190 -123.5 -311t-320.5 -121q-199 0 -322 122.5t-123 323.5zM291 416q0 -121 71.5 -203t190.5 -82q121 0 192.5 82t71.5 203q0 117 -70.5 194.5 t-191.5 77.5t-192.5 -78t-71.5 -194z" />
<glyph unicode="7" horiz-adv-x="1091" d="M135 1155v156h875v-105q-227 -262 -348 -536.5t-148 -669.5h-186q27 387 132 651t288 496v8h-613z" />
<glyph unicode="8" horiz-adv-x="1171" d="M135 356q0 127 68.5 215t165.5 123v11q-186 80 -187 280q0 158 115 253t291 95q174 0 287.5 -94t113.5 -252q0 -106 -53 -177t-133 -105v-11q96 -37 164.5 -125t68.5 -215q0 -166 -122.5 -270t-325.5 -104q-205 0 -329 105t-124 271zM322 369q0 -113 76.5 -180.5 t189.5 -67.5q111 0 185.5 66.5t74.5 174.5q0 111 -70.5 182.5t-193.5 71.5t-192.5 -71.5t-69.5 -175.5zM362 981q0 -98 66 -155.5t160 -57.5q92 0 156.5 57.5t64.5 155.5q0 100 -62.5 158.5t-158.5 58.5q-98 0 -162 -58.5t-64 -158.5z" />
<glyph unicode="9" horiz-adv-x="1103" d="M106 899q0 190 125 311t322 121q199 0 320.5 -123t121.5 -323q0 -123 -41 -223.5t-114 -215.5l-287 -446h-223l352 516q-72 -33 -168 -33q-178 0 -293 117t-115 299zM287 895q0 -117 70.5 -194.5t191.5 -77.5t192.5 77.5t71.5 194.5q0 121 -71.5 203t-190.5 82 q-121 0 -192.5 -82t-71.5 -203z" />
<glyph unicode=":" horiz-adv-x="493" d="M125 111q0 51 36 86.5t87 35.5t86 -35.5t35 -86.5q0 -49 -35 -85t-86 -36t-87 35.5t-36 85.5zM125 911q0 51 36 87t87 36t86 -35.5t35 -87.5q0 -49 -35 -84.5t-86 -35.5t-87 35.5t-36 84.5z" />
<glyph unicode=";" horiz-adv-x="509" d="M131 -203q115 94 117 193q-45 -4 -80 27.5t-35 87t35 90t88 34.5q61 0 95 -45t34 -116q0 -207 -203 -334zM137 911q0 51 37 87t88 36q49 0 85 -35.5t36 -87.5q0 -49 -36 -84.5t-85 -35.5q-51 0 -88 35.5t-37 84.5z" />
<glyph unicode="&#x3c;" horiz-adv-x="1136" d="M174 494v186l789 461v-189l-607 -358v-10l607 -363v-188z" />
<glyph unicode="=" horiz-adv-x="1134" d="M117 272v152h901v-152h-901zM117 723v154h901v-154h-901z" />
<glyph unicode="&#x3e;" horiz-adv-x="1134" d="M174 33v188l604 363v10l-604 358v189l789 -461v-186z" />
<glyph unicode="?" horiz-adv-x="933" d="M82 1087q4 143 96 255t285 112q172 0 268 -90t96 -246q0 -111 -47 -181.5t-155 -154.5q-76 -59 -107 -128.5t-31 -168.5v-88h-165v101q0 123 35.5 208t138.5 164q96 76 129.5 123t33.5 119q0 84 -50 135t-146 51q-102 0 -154.5 -62t-60.5 -149h-166zM287 111 q0 51 35.5 86.5t87 35.5t86 -35.5t34.5 -86.5q0 -49 -34.5 -85t-86 -36t-87 35.5t-35.5 85.5z" />
<glyph unicode="@" horiz-adv-x="2062" d="M135 492q0 219 73 402t194.5 305t283.5 188.5t340 66.5q387 0 644 -246.5t257 -648.5q0 -547 -371 -547q-102 0 -175.5 46t-94.5 128q-37 -70 -118 -122t-199 -52q-172 0 -294 133.5t-122 348.5q0 221 120 361t296 140q201 0 280 -153h15l18 139h139v-662 q0 -82 41 -122.5t111 -40.5q199 0 199 389q0 352 -209 558t-543 206q-307 0 -519 -229.5t-212 -587.5q0 -346 225 -561.5t543 -215.5q238 0 418 117l67 -123q-207 -139 -495 -139q-246 0 -452 108.5t-333 321.5t-127 492zM719 504q0 -152 78.5 -244t195.5 -92q115 0 194 92 t79 244q0 150 -79 242t-194 92q-117 0 -195.5 -92.5t-78.5 -241.5z" />
<glyph unicode="A" horiz-adv-x="1335" d="M53 0l500 1434h229l500 -1434h-199l-131 391h-569l-131 -391h-199zM436 551h461l-223 663h-15z" />
<glyph unicode="B" horiz-adv-x="1249" d="M178 0v1434h522q199 0 301.5 -95.5t102.5 -261.5q0 -225 -203 -319v-10q240 -90 240 -357q0 -184 -116 -287.5t-320 -103.5h-527zM360 154h330q123 0 192.5 67.5t69.5 179.5q0 115 -71.5 188t-192.5 73h-328v-508zM360 815h318q115 0 178.5 64.5t63.5 173.5 q0 106 -64.5 166.5t-171.5 60.5h-324v-465z" />
<glyph unicode="C" horiz-adv-x="1540" d="M135 711q0 324 188.5 533.5t491.5 209.5q233 0 396 -125t200 -344h-197q-37 137 -141 217t-256 80q-221 0 -357 -165t-136 -406q0 -244 137 -401.5t354 -157.5q158 0 268.5 77.5t153.5 206.5h197q-39 -207 -209 -331.5t-410 -124.5q-305 0 -492.5 204.5t-187.5 526.5z " />
<glyph unicode="D" horiz-adv-x="1441" d="M178 0v1434h443q334 0 510 -193.5t176 -523.5q0 -326 -175.5 -521.5t-510.5 -195.5h-443zM365 168h245q262 0 384 150.5t122 402.5q0 250 -122 397.5t-384 147.5h-245v-1098z" />
<glyph unicode="E" horiz-adv-x="1200" d="M178 0v1434h905v-166h-723v-459h637v-162h-637v-481h744v-166h-926z" />
<glyph unicode="F" horiz-adv-x="1136" d="M178 0v1434h879v-172h-692v-474h604v-163h-604v-625h-187z" />
<glyph unicode="G" horiz-adv-x="1607" d="M135 696q0 326 195.5 542t507.5 216q238 0 392 -118.5t191 -309.5h-200q-37 117 -136.5 186.5t-246.5 69.5q-231 0 -372.5 -164t-141.5 -420q0 -242 132 -396.5t357 -154.5q182 0 307 91.5t125 259.5v98h-426v149h611v-745h-148l-22 166h-15q-168 -186 -452 -186 q-299 0 -478.5 200.5t-179.5 515.5z" />
<glyph unicode="H" horiz-adv-x="1427" d="M178 0v1434h187v-625h700v625h184v-1434h-184v641h-700v-641h-187z" />
<glyph unicode="I" horiz-adv-x="542" d="M178 0v1434h187v-1434h-187z" />
<glyph unicode="J" horiz-adv-x="1101" d="M82 412h192q6 -113 66.5 -186.5t167 -73.5t168 70.5t61.5 213.5v998h187v-1008q0 -217 -114 -331.5t-302 -114.5q-199 0 -309.5 117.5t-116.5 314.5z" />
<glyph unicode="K" horiz-adv-x="1275" d="M178 0v1434h187v-615h110l477 615h215l-534 -689v-10l588 -735h-215l-531 651h-110v-651h-187z" />
<glyph unicode="L" horiz-adv-x="1179" d="M178 0v1434h182v-1266h738v-168h-920z" />
<glyph unicode="M" horiz-adv-x="1798" d="M178 0v1434h238l477 -1076h14l475 1076h236v-1434h-182v1102h-13l-422 -938h-200l-424 938h-17v-1102h-182z" />
<glyph unicode="N" horiz-adv-x="1511" d="M178 0v1434h203l756 -1119h14v1119h182v-1434h-200l-758 1118h-15v-1118h-182z" />
<glyph unicode="O" horiz-adv-x="1685" d="M135 717q0 315 203 526t506 211q301 0 503.5 -211t202.5 -526q0 -313 -201.5 -525t-504.5 -212t-506 209.5t-203 527.5zM324 716.5q0 -239.5 149.5 -402t370.5 -162.5t369.5 162.5t148.5 402t-148.5 402.5t-369.5 163t-370.5 -163t-149.5 -402.5z" />
<glyph unicode="P" horiz-adv-x="1290" d="M178 0v1434h527q205 0 327.5 -119t122.5 -311q0 -201 -126 -319t-339 -118h-332v-567h-180zM358 733h316q139 0 215 72t76 196.5t-76 195.5t-201 71h-330v-535z" />
<glyph unicode="Q" horiz-adv-x="1685" d="M135 717q0 315 203 526t506 211q301 0 503.5 -211t202.5 -526q0 -258 -140.5 -453t-369.5 -258q58 -108 225 -108h3q66 0 155 16v-141q-96 -20 -188 -21q-279 0 -369 228h-22q-303 0 -506 209.5t-203 527.5zM324 716.5q0 -239.5 149.5 -402t370.5 -162.5t369.5 162.5 t148.5 402t-148.5 402.5t-369.5 163t-370.5 -163t-149.5 -402.5z" />
<glyph unicode="R" horiz-adv-x="1275" d="M178 0v1434h506q207 0 326.5 -111t119.5 -295q0 -152 -81.5 -254t-227.5 -141l375 -633h-205l-352 602h-279v-602h-182zM360 764h299q133 0 210 70.5t77 185.5q0 121 -76.5 186.5t-210.5 65.5h-299v-508z" />
<glyph unicode="S" horiz-adv-x="1243" d="M135 410h182q16 -129 98.5 -199t219.5 -70q121 0 198.5 57.5t77.5 172.5q0 66 -25.5 113.5t-75.5 80.5t-91 49.5t-107 36.5l-71 21q-72 23 -124 47t-111.5 68t-92.5 113t-33 157q0 180 129 288.5t328 108.5q201 0 327 -113.5t136 -291.5h-185q-12 109 -82.5 176 t-195.5 67q-119 0 -195.5 -63.5t-76.5 -163.5q0 -39 11 -70.5t36.5 -56.5t46 -41t63.5 -32.5t61.5 -23.5t65.5 -22l64 -20q53 -16 89 -30.5t98.5 -50.5t100 -77t68.5 -111.5t31 -154.5q0 -193 -132 -294t-333 -101q-225 0 -355 113.5t-145 316.5z" />
<glyph unicode="T" horiz-adv-x="1177" d="M82 1266v168h1014v-168h-414v-1266h-186v1266h-414z" />
<glyph unicode="U" horiz-adv-x="1468" d="M178 541v893h187v-881q0 -195 103 -298t269 -103t266.5 103t100.5 298v881h186v-893q0 -270 -151.5 -415.5t-401.5 -145.5q-252 0 -405.5 145t-153.5 416z" />
<glyph unicode="V" horiz-adv-x="1349" d="M53 1434h201l414 -1190h14l414 1190h198l-506 -1434h-229z" />
<glyph unicode="W" horiz-adv-x="1832" d="M53 1434h183l249 -1172h15l313 1069h207l311 -1069h15l253 1172h179l-320 -1434h-215l-319 1096h-15l-319 -1096h-215z" />
<glyph unicode="X" horiz-adv-x="1267" d="M53 0l457 739l-434 695h221l334 -541h12l336 541h213l-434 -695l456 -739h-217l-354 582h-12l-355 -582h-223z" />
<glyph unicode="Y" horiz-adv-x="1327" d="M53 1434h226l378 -553h13l379 553h225l-516 -756v-678h-187v678z" />
<glyph unicode="Z" horiz-adv-x="1263" d="M135 0v104l721 1151v11h-678v168h938v-105l-708 -1151v-10h712v-168h-985z" />
<glyph unicode="[" horiz-adv-x="602" d="M178 -346v1929h371v-133h-215v-1663h215v-133h-371z" />
<glyph unicode="\" horiz-adv-x="1015" d="M53 1536h174l736 -1638h-177z" />
<glyph unicode="]" horiz-adv-x="602" d="M53 -213h215v1663h-215v133h371v-1929h-371v133z" />
<glyph unicode="^" horiz-adv-x="1134" d="M115 737l346 697h215l346 -697h-188l-259 516h-12l-260 -516h-188z" />
<glyph unicode="_" horiz-adv-x="1052" d="M82 0h891v-154h-891v154z" />
<glyph unicode="`" horiz-adv-x="659" d="M178 1434h160l143 -297h-145z" />
<glyph unicode="a" horiz-adv-x="1083" d="M86 272q0 139 95 218t253 96l305 28v58q0 106 -55 165.5t-158 59.5q-184 0 -221 -195h-178q16 152 121.5 247t277.5 95q178 0 286 -98t108 -278v-445q-1 -84 79 -84h27v-139h-82q-152 0 -182 131q-118 -151 -335 -151h-3q-152 0 -245 74.5t-93 217.5zM266 278.5 q0 -79.5 51.5 -117.5t131.5 -38q117 0 203.5 66.5t86.5 203.5v90l-247 -24q-104 -10 -165 -55.5t-61 -125z" />
<glyph unicode="b" horiz-adv-x="1228" d="M143 0v1454h179v-565q110 155 327 155q207 0 339 -145t132 -385q0 -238 -132 -386t-339 -148q-211 0 -330 165h-12l-16 -145h-148zM322 514q0 -170 84 -273.5t221 -103.5q139 0 227 104.5t88 272.5q0 166 -88 269.5t-227 103.5q-137 0 -221 -103.5t-84 -269.5z" />
<glyph unicode="c" horiz-adv-x="1167" d="M106 506q0 233 143.5 385.5t364.5 152.5q176 0 306.5 -97t156.5 -269h-180q-20 90 -96 149.5t-187 59.5q-143 0 -235 -108.5t-92 -272.5q0 -160 90 -264.5t239 -104.5q221 0 285 197h180q-29 -162 -155 -258t-310 -96q-229 0 -369.5 149.5t-140.5 376.5z" />
<glyph unicode="d" horiz-adv-x="1228" d="M109 514q0 240 132 385t339 145q217 0 327 -155v565h178v-1454h-147l-16 145h-13q-118 -165 -326 -165h-3q-207 0 -339 148t-132 386zM287 514q0 -168 88 -272.5t227 -104.5q137 0 221 103.5t84 273.5q0 166 -84 269.5t-221 103.5q-139 0 -227 -103.5t-88 -269.5z" />
<glyph unicode="e" horiz-adv-x="1163" d="M106 502q0 244 139.5 393t350.5 149q197 0 327 -133t130 -379q0 -14 -4 -63h-764q8 -154 93 -248t226 -94q100 0 171 44t97 128h175q-33 -152 -152 -235.5t-291 -83.5q-219 0 -358.5 143t-139.5 379zM287 600h592q-2 133 -80 215t-203 82t-210 -85t-99 -212z" />
<glyph unicode="f" horiz-adv-x="729" d="M41 879v145h209v168q0 125 74.5 193.5t203.5 68.5q86 0 160 -31l-33 -133q-45 14 -96 15q-129 0 -129 -129v-152h240v-145h-240v-879h-180v879h-209z" />
<glyph unicode="g" horiz-adv-x="1097" d="M106 -80l173 146q-61 23 -97.5 71.5t-36.5 114.5q0 121 131 190q-106 96 -106 250t106.5 253t278.5 99q135 0 233 -63q94 47 166 141l101 -106q-70 -72 -172 -123q63 -88 63 -201q0 -158 -108.5 -253t-276.5 -95q-98 0 -184 35q-68 -35 -68 -92q0 -94 148 -94h200 q170 0 263.5 -76t93.5 -213q0 -160 -122 -247t-323 -87q-213 0 -329.5 98.5t-133.5 251.5zM285 -98q49 -190 284 -191q115 0 194 47.5t79 137.5q0 80 -61.5 115.5t-141.5 35.5h-180zM342 692q0 -90 61.5 -150.5t157.5 -60.5t154.5 60.5t58.5 150.5q0 96 -57.5 155.5 t-155.5 59.5t-158.5 -59.5t-60.5 -155.5z" />
<glyph unicode="h" d="M143 0v1454h179v-553h14q104 143 297 143q168 0 270.5 -104t102.5 -297v-643h-179v604q0 141 -66.5 212t-172.5 71q-113 0 -189.5 -77t-76.5 -226v-584h-179z" />
<glyph unicode="i" horiz-adv-x="464" d="M113 1306.5q0 49.5 35.5 83t84.5 33.5q47 0 82 -33.5t35 -83t-35 -84t-82 -34.5q-49 0 -84.5 34.5t-35.5 84zM143 0v1024h179v-1024h-179z" />
<glyph unicode="j" horiz-adv-x="464" d="M-90 -270q53 -14 100 -15q133 0 133 129v1180h179v-1202q0 -106 -59 -179t-204 -73q-74 0 -149 22v138zM113 1306.5q0 49.5 35.5 83t84.5 33.5q47 0 82 -33.5t35 -83t-35 -84t-82 -34.5q-49 0 -84.5 34.5t-35.5 84z" />
<glyph unicode="k" horiz-adv-x="1046" d="M143 0v1454h179v-870h14l448 440h220l-420 -414l420 -610h-201l-342 489l-139 -137v-352h-179z" />
<glyph unicode="l" horiz-adv-x="464" d="M143 0v1454h179v-1454h-179z" />
<glyph unicode="m" horiz-adv-x="1697" d="M143 0v1024h162l17 -123h14q98 143 276 143q203 0 279 -180h12q100 180 316 180q152 0 243.5 -92t91.5 -266v-686h-180v651q0 115 -59.5 175.5t-147.5 60.5q-102 0 -165.5 -73t-63.5 -189v-625h-180v637q0 121 -58.5 185.5t-148.5 64.5t-159.5 -66.5t-69.5 -191.5v-629 h-179z" />
<glyph unicode="n" d="M143 0v1024h162l17 -123h14q104 143 297 143q168 0 270.5 -104t102.5 -297v-643h-179v604q0 141 -66.5 212t-172.5 71q-113 0 -189.5 -77t-76.5 -226v-584h-179z" />
<glyph unicode="o" horiz-adv-x="1243" d="M106 512q0 231 145.5 381.5t369.5 150.5q221 0 368.5 -151.5t147.5 -380.5t-146.5 -380.5t-369.5 -151.5q-221 0 -368 152.5t-147 379.5zM287 512q0 -156 93 -265.5t240.5 -109.5t242.5 109.5t95 265.5q0 158 -95 266.5t-242 108.5q-150 0 -242 -108.5t-92 -266.5z" />
<glyph unicode="p" horiz-adv-x="1228" d="M143 -410v1434h148l16 -145h12q119 165 330 165q207 0 339 -148t132 -386q0 -240 -132 -385t-339 -145q-217 0 -327 155v-545h-179zM322 510q0 -166 84 -269.5t221 -103.5q139 0 227 103.5t88 269.5q0 168 -88 272.5t-227 104.5q-137 0 -221 -103.5t-84 -273.5z" />
<glyph unicode="q" horiz-adv-x="1228" d="M109 510q0 238 132 386t339 148q211 0 329 -165h13l16 145h147v-1434h-178v545q-110 -155 -324 -155h-3q-207 0 -339 145t-132 385zM287 510q0 -166 88 -269.5t227 -103.5q137 0 221 103.5t84 269.5q0 170 -84 273.5t-221 103.5q-139 0 -227 -104.5t-88 -272.5z" />
<glyph unicode="r" horiz-adv-x="729" d="M143 0v1024h162l17 -141h14q45 78 110.5 119.5t182.5 41.5h59v-180q-31 4 -92 4q-131 0 -202.5 -91t-71.5 -240v-537h-179z" />
<glyph unicode="s" horiz-adv-x="976" d="M106 311h175q18 -190 227 -190q82 0 136 36t54 107q0 76 -56 117t-155 70l-69 18q-57 16 -96 32.5t-86.5 48.5t-72 83t-24.5 119q0 133 101.5 212.5t244.5 79.5q172 0 266.5 -86t100.5 -206h-174q-6 68 -57.5 109.5t-133.5 41.5q-76 0 -126 -37t-50 -106 q0 -35 14.5 -60.5t46 -44t57.5 -29t75 -24.5l65 -20q135 -37 218 -108t83 -206q0 -143 -102 -215.5t-260 -72.5q-190 0 -291.5 90t-110.5 241z" />
<glyph unicode="t" horiz-adv-x="733" d="M41 879v145h70q90 0 126.5 34t36.5 118v127h164v-279h256v-145h-256v-623q0 -129 129 -129q49 0 103 16v-141q-82 -22 -150 -22q-145 0 -203.5 72.5t-58.5 178.5v648h-217z" />
<glyph unicode="u" d="M143 381v643h179v-604q0 -141 66.5 -212t172.5 -71q115 0 190.5 77t75.5 226v584h179v-1024h-162l-17 123h-14q-104 -143 -297 -143q-168 0 -270.5 104t-102.5 297z" />
<glyph unicode="v" horiz-adv-x="1087" d="M43 1024h186l308 -838h14l307 838h186l-389 -1024h-223z" />
<glyph unicode="w" horiz-adv-x="1474" d="M43 1024h170l190 -817h15l221 743h199l219 -743h14l193 817h170l-263 -1024h-208l-218 752h-14l-223 -752h-207z" />
<glyph unicode="x" horiz-adv-x="1021" d="M43 0l354 530l-325 494h204l230 -352h12l225 352h203l-319 -494l352 -530h-207l-254 391h-12l-258 -391h-205z" />
<glyph unicode="y" horiz-adv-x="1087" d="M43 1024h186l316 -838h14l299 838h186l-430 -1184q-12 -37 -23 -60.5t-40 -67.5t-63.5 -71.5t-95 -49t-132.5 -21.5q-63 0 -145 22v138q66 -14 110 -15q158 0 219 152l54 133h-62z" />
<glyph unicode="z" horiz-adv-x="985" d="M106 0v90l517 780v11h-484v143h729v-90l-514 -780v-11h520v-143h-768z" />
<glyph unicode="{" horiz-adv-x="575" d="M53 557v123q152 14 152 180v477q0 246 239 246h78v-133h-47q-117 0 -117 -131v-473q0 -158 -135 -221v-13q135 -59 135 -221v-475q0 -129 117 -129h47v-133h-78q-240 0 -239 246v477q0 166 -152 180z" />
<glyph unicode="|" horiz-adv-x="524" d="M178 -287v1864h168v-1864h-168z" />
<glyph unicode="}" horiz-adv-x="575" d="M53 -213h49q115 0 115 129v475q0 162 135 221v13q-135 63 -135 221v473q0 131 -115 131h-49v133h78q240 0 240 -246v-477q0 -166 151 -180v-123q-152 -14 -151 -180v-477q0 -246 -240 -246h-78v133z" />
<glyph unicode="~" horiz-adv-x="1134" d="M49 418q14 145 90 241.5t209 96.5q82 0 147.5 -34t100.5 -74t84 -73.5t100 -33.5q72 0 112 53t50 137h145q-12 -143 -87.5 -240.5t-208.5 -97.5q-82 0 -147.5 34t-101.5 74t-84 73.5t-100 33.5q-139 0 -161 -190h-148z" />
<glyph unicode="&#xa1;" horiz-adv-x="544" d="M152 913q0 49 35.5 85t84.5 36q51 0 88 -35.5t37 -85.5q0 -51 -36.5 -86.5t-88.5 -35.5q-49 0 -84.5 35.5t-35.5 86.5zM180 -410l31 1037h125l33 -1037h-189z" />
<glyph unicode="&#xa2;" horiz-adv-x="1091" d="M96 655q0 195 107.5 333t279.5 171v154h150v-148q150 -16 255 -107t130 -241h-172q-16 72 -72.5 126t-140.5 69v-703q164 25 217 183h172q-29 -141 -132.5 -230.5t-256.5 -103.5v-156h-150v162q-178 31 -282.5 166t-104.5 325zM266 655q0 -123 57.5 -214t159.5 -122v682 q-98 -33 -157.5 -127t-59.5 -219z" />
<glyph unicode="&#xa3;" horiz-adv-x="1245" d="M135 0v113q119 41 205 129t86 202q0 55 -20 111h-271v135h191q-37 53 -54.5 82t-36 82t-18.5 109q0 174 131 271t326 97q152 0 262.5 -64.5t161.5 -162.5l-127 -98q-102 166 -289 165q-125 0 -197.5 -60t-72.5 -163q0 -37 14 -74.5t27.5 -58t46 -65.5t43.5 -60h418v-135 h-353q12 -43 13 -92q0 -180 -183 -303v-10h664v-150h-967z" />
<glyph unicode="&#xa4;" horiz-adv-x="1271" d="M106 96l162 162q-78 117 -78 254q0 141 78 254l-162 162l111 110l164 -159q113 78 256 77q141 0 252 -77l160 159l114 -110l-162 -160q80 -113 80 -256t-80 -256l162 -160l-114 -110l-160 159q-113 -78 -254 -77.5t-254 77.5l-164 -159zM354 512q0 -113 83 -197t200 -84 q115 0 195.5 84t80.5 197t-80.5 197t-195.5 84q-117 0 -200 -84t-83 -197z" />
<glyph unicode="&#xa5;" horiz-adv-x="1210" d="M53 1311h213l332 -465h14l330 465h213l-350 -496h274v-145h-377v-213h377v-146h-377v-311h-194v311h-377v146h377v213h-377v145h275z" />
<glyph unicode="&#xa6;" horiz-adv-x="524" d="M178 -287v727h168v-727h-168zM178 850v727h168v-727h-168z" />
<glyph unicode="&#xa7;" horiz-adv-x="1239" d="M135 508q0 119 70.5 197.5t171.5 113.5v8q-213 80 -213 275q0 166 132 259t333 93q223 0 348 -114.5t121 -276.5h-174q-4 98 -82 166.5t-217 68.5q-125 0 -203 -52t-78 -144q0 -45 22.5 -80t50 -55.5t80 -36t84 -21.5t89.5 -14q205 -33 319.5 -128t114.5 -251 q0 -117 -70.5 -195.5t-171.5 -113.5v-10q213 -80 213 -273q0 -166 -132 -260t-333 -94q-223 0 -348 114.5t-121 276.5h174q4 -98 82 -166.5t217 -68.5q125 0 203 52t78 144q0 45 -22.5 81t-50 55.5t-80 36t-84 22.5t-89.5 14q-203 31 -318.5 126t-115.5 251zM315 516 q0 -106 98.5 -173t225.5 -67q121 0 203 63.5t82 168.5q0 106 -98.5 173t-225.5 67q-121 0 -203 -63.5t-82 -168.5z" />
<glyph unicode="&#xa8;" horiz-adv-x="954" d="M178 1255.5q0 47.5 33 80t80 32.5t79.5 -32.5t32.5 -80t-33.5 -80t-78.5 -32.5t-79 32.5t-34 80zM555 1255.5q0 47.5 31.5 80t79 32.5t79 -32.5t31.5 -80t-32.5 -80t-77.5 -32.5t-78 32.5t-33 80z" />
<glyph unicode="&#xa9;" horiz-adv-x="1744" d="M135 717q0 307 216 522t521 215q303 0 520.5 -215t217.5 -522t-217.5 -522t-520.5 -215q-305 0 -521 215t-216 522zM258 717q0 -254 180 -436.5t432 -182.5q254 0 435.5 182.5t181.5 436.5t-181.5 436t-435.5 182q-252 0 -432 -182t-180 -436zM539 715q0 164 93 266 t238 102q119 0 200 -61t99 -184h-141q-33 121 -156 120q-84 0 -135 -68.5t-51 -176.5q0 -113 51 -177.5t142 -64.5q61 0 103 32t56 83h142q-12 -113 -99.5 -176.5t-203.5 -63.5q-156 0 -247 100.5t-91 268.5z" />
<glyph unicode="&#xab;" horiz-adv-x="1095" d="M53 610l269 414h202l-272 -414l272 -413h-202zM518 610l268 414h203l-272 -414l272 -413h-203z" />
<glyph unicode="&#xac;" horiz-adv-x="1136" d="M111 694v144h890v-541h-155v397h-735z" />
<glyph unicode="&#xad;" horiz-adv-x="913" d="M82 559v156h752v-156h-752z" />
<glyph unicode="&#xae;" horiz-adv-x="1744" d="M135 717q0 307 216 522t521 215q303 0 520.5 -215t217.5 -522t-217 -522t-521 -215q-305 0 -521 215t-216 522zM258 717q0 -254 180 -436.5t432 -182.5q254 0 435.5 182.5t181.5 436.5t-181.5 436t-435.5 182q-252 0 -432 -182t-180 -436zM633 358v717h270 q104 0 163.5 -58.5t59.5 -156.5q0 -143 -133 -196l170 -306h-141l-154 279h-106v-279h-129zM762 750h119q53 0 83.5 29.5t30.5 78.5t-29.5 77t-84.5 28h-119v-213z" />
<glyph unicode="&#xaf;" horiz-adv-x="974" d="M178 1190v131h617v-131h-617z" />
<glyph unicode="&#xb0;" horiz-adv-x="868" d="M106 1128.5q0 135.5 96.5 230.5t231.5 95q133 0 229.5 -95t96.5 -230.5t-96.5 -229.5t-229.5 -94q-135 0 -231.5 94t-96.5 229.5zM248 1128q0 -80 53 -133t133 -53q82 0 134.5 53.5t52.5 132.5q0 82 -52.5 134.5t-134.5 52.5q-80 0 -133 -52.5t-53 -134.5z" />
<glyph unicode="&#xb1;" horiz-adv-x="1134" d="M121 0v150h895v-150h-895zM121 645v141h366v357h162v-357h367v-141h-367v-358h-162v358h-366z" />
<glyph unicode="&#xb2;" horiz-adv-x="696" d="M76 698v47q0 186 174 297l125 78q37 23 56.5 38.5t38.5 46t19 65.5q0 53 -35.5 86t-93.5 33q-68 0 -107.5 -44.5t-43.5 -99.5h-131q6 98 80.5 175t208.5 77q115 0 184.5 -60.5t69.5 -160.5q0 -61 -30 -111.5t-52.5 -69t-61.5 -42.5l-135 -88q-109 -70 -117 -160h393v-107 h-542z" />
<glyph unicode="&#xb3;" horiz-adv-x="731" d="M76 922h127q20 -127 155 -127q72 0 118 34.5t46 92t-42 93.5t-111 36h-80v98h73q61 0 99.5 32.5t38.5 88t-39 88.5t-101 33q-57 0 -97 -30t-52 -83h-125q8 96 89 156.5t190 60.5q111 0 186.5 -60.5t75.5 -158.5q0 -109 -109 -168v-6q63 -20 100 -69.5t37 -117.5 q0 -98 -83 -163.5t-214 -65.5q-127 0 -199.5 62.5t-82.5 173.5z" />
<glyph unicode="&#xb4;" horiz-adv-x="659" d="M178 1137l144 297h159l-157 -297h-146z" />
<glyph unicode="&#xb5;" d="M143 -410v1434h179v-604q0 -141 66.5 -212t172.5 -71q115 0 190.5 77t75.5 226v584h179v-1024h-162l-17 123h-14q-104 -143 -297 -143q-119 0 -201 63v-453h-172z" />
<glyph unicode="&#xb6;" horiz-adv-x="1380" d="M106 1049q0 170 121 277.5t303 107.5h768v-160h-186v-1274h-170v1274h-237v-1274h-175v662q-178 0 -301 107.5t-123 279.5z" />
<glyph unicode="&#xb7;" horiz-adv-x="405" d="M82 635q0 51 36 88t87 37q49 0 85 -37t36 -88q0 -49 -36 -85t-85 -36q-51 0 -87 36t-36 85z" />
<glyph unicode="&#xb8;" horiz-adv-x="712" d="M178 -387l37 82q61 -33 107 -33q49 0 76.5 23.5t27.5 60.5q0 86 -109 86q-29 0 -69 -16l-62 51l107 153h102v-20l-63 -90q78 6 140.5 -40t62.5 -130q0 -78 -55.5 -124t-151.5 -46q-90 0 -150 43z" />
<glyph unicode="&#xb9;" horiz-adv-x="485" d="M76 1241v102h78q102 0 102 101v41h115v-789h-129v545h-166z" />
<glyph unicode="&#xbb;" horiz-adv-x="1095" d="M106 197l273 413l-273 414h203l269 -414l-269 -413h-203zM571 197l273 413l-273 414h203l268 -414l-268 -413h-203z" />
<glyph unicode="&#xbc;" horiz-adv-x="1728" d="M178 1190v102h78q102 0 102 101v41h117v-789h-129v545h-168zM252 0l1020 1434h153l-1019 -1434h-154zM903 176v64l369 548h131v-514h145v-98h-145v-176h-121v176h-379zM1051 274h231v347h-10z" />
<glyph unicode="&#xbd;" horiz-adv-x="1804" d="M178 1190v102h78q102 0 102 101v41h117v-789h-129v545h-168zM254 0l1020 1434h151l-1019 -1434h-152zM1079 0v47q0 184 172 297l127 78q37 23 56.5 38t39 46t19.5 65q0 53 -37 86t-94 33q-68 0 -106.5 -44t-43.5 -99h-131q4 98 79 175t210 77q115 0 184.5 -60.5 t69.5 -160.5q0 -61 -30.5 -112.5t-51 -67t-61.5 -44.5l-138 -88q-106 -70 -114 -160h393v-106h-543z" />
<glyph unicode="&#xbe;" horiz-adv-x="1880" d="M178 870h127q20 -127 158 -127q72 0 118 35t46 92.5t-42 93t-114 35.5h-78v99h72q61 0 99 32.5t38 88t-39 88t-100 32.5q-55 0 -96 -29.5t-54 -82.5h-123q6 96 87 156.5t192 60.5t186.5 -60.5t75.5 -158.5q0 -109 -110 -168v-6q63 -20 100 -69.5t37 -117.5 q0 -100 -82 -164.5t-213 -64.5q-125 0 -200 62.5t-85 172.5zM406 0l1019 1434h154l-1020 -1434h-153zM1055 176v64l368 548h131v-514h146v-98h-146v-176h-120v176h-379zM1202 274h232v347h-9z" />
<glyph unicode="&#xbf;" horiz-adv-x="933" d="M82 -94q0 111 47 181.5t154 154.5q76 59 106.5 127.5t30.5 169.5v88h166v-101q0 -125 -35 -209t-137 -163q-96 -76 -131 -123t-35 -119q0 -84 51 -135t147 -51q102 0 154.5 62t61.5 149h165q-6 -143 -98 -255t-283 -112q-172 0 -268 90t-96 246zM379 913q0 49 35 85 t84 36q51 0 88 -35.5t37 -85.5q0 -51 -37 -86.5t-88 -35.5q-49 0 -84 35.5t-35 86.5z" />
<glyph unicode="&#xc0;" horiz-adv-x="1335" d="M53 0l500 1434h229l500 -1434h-199l-131 391h-569l-131 -391h-199zM436 551h461l-223 663h-15zM440 1843h160l141 -297h-143z" />
<glyph unicode="&#xc1;" horiz-adv-x="1335" d="M53 0l500 1434h229l500 -1434h-199l-131 391h-569l-131 -391h-199zM436 551h461l-223 663h-15zM596 1546l143 297h160l-158 -297h-145z" />
<glyph unicode="&#xc2;" horiz-adv-x="1335" d="M53 0l500 1434h229l500 -1434h-199l-131 391h-569l-131 -391h-199zM381 1554l207 289h160l208 -289h-161l-121 177h-12l-119 -177h-162zM436 551h461l-223 663h-15z" />
<glyph unicode="&#xc3;" horiz-adv-x="1335" d="M53 0l500 1434h229l500 -1434h-199l-131 391h-569l-131 -391h-199zM315 1550q10 106 62.5 175t144.5 69q53 0 96.5 -20.5t66 -45t52 -45t60.5 -20.5q84 0 96 113h127q-6 -100 -59.5 -171t-145.5 -71q-51 0 -94 20.5t-66.5 44t-54 44t-61.5 20.5q-82 0 -95 -113h-129z M436 551h461l-223 663h-15z" />
<glyph unicode="&#xc4;" horiz-adv-x="1335" d="M53 0l500 1434h229l500 -1434h-199l-131 391h-569l-131 -391h-199zM309 1691.5q0 51.5 37 87.5t88 36t87 -36t36 -87.5t-36 -87t-87 -35.5t-88 35.5t-37 87zM436 551h461l-223 663h-15zM782 1691.5q0 51.5 36 87.5t85 36q51 0 88 -36t37 -87.5t-37 -87t-88 -35.5 q-49 0 -85 35.5t-36 87z" />
<glyph unicode="&#xc5;" horiz-adv-x="1335" d="M53 0l500 1434h229l500 -1434h-199l-131 391h-569l-131 -391h-199zM436 551h461l-223 663h-15zM473 1712q0 80 58.5 137.5t138.5 57.5t138 -57.5t58 -137.5q0 -78 -58 -136t-138 -58t-138.5 58t-58.5 136zM584 1712q0 -37 25.5 -63.5t62.5 -26.5q35 0 59.5 26.5 t24.5 63.5q0 35 -25.5 61.5t-58.5 26.5q-37 0 -62.5 -25.5t-25.5 -62.5z" />
<glyph unicode="&#xc6;" horiz-adv-x="2066" d="M53 0l924 1434h971v-166h-693v-459h609v-162h-609v-481h713v-166h-893v391h-549l-254 -391h-219zM631 551h444v663h-14z" />
<glyph unicode="&#xc7;" horiz-adv-x="1540" d="M135 711q0 324 188.5 533.5t491.5 209.5q233 0 396 -125t200 -344h-197q-37 137 -141 217t-256 80q-221 0 -357 -165t-136 -406q0 -244 137 -401.5t354 -157.5q158 0 268.5 77.5t153.5 206.5h197q-39 -197 -195 -319.5t-379 -134.5l-49 -72q76 4 138.5 -41t62.5 -129 q0 -78 -54.5 -124t-150.5 -46q-90 0 -150 43l37 82q57 -33 106.5 -33t77 23.5t27.5 60.5t-27.5 61.5t-80.5 24.5q-33 0 -70 -16l-61 51l79 115q-276 25 -443 226.5t-167 502.5z" />
<glyph unicode="&#xc8;" horiz-adv-x="1200" d="M178 0v1434h905v-166h-723v-459h637v-162h-637v-481h744v-166h-926zM403 1843h160l142 -297h-144z" />
<glyph unicode="&#xc9;" horiz-adv-x="1200" d="M178 0v1434h905v-166h-723v-459h637v-162h-637v-481h744v-166h-926zM559 1546l143 297h160l-157 -297h-146z" />
<glyph unicode="&#xca;" horiz-adv-x="1200" d="M178 0v1434h905v-166h-723v-459h637v-162h-637v-481h744v-166h-926zM344 1554l207 289h160l209 -289h-162l-121 177h-12l-119 -177h-162z" />
<glyph unicode="&#xcb;" horiz-adv-x="1200" d="M178 0v1434h905v-166h-723v-459h637v-162h-637v-481h744v-166h-926zM272 1691.5q0 51.5 37 87.5t88.5 36t87 -36t35.5 -87.5t-35.5 -87t-87 -35.5t-88.5 35.5t-37 87zM745 1691.5q0 51.5 36 87.5t85 36q51 0 88 -36t37 -87.5t-37 -87t-88 -35.5q-49 0 -85 35.5t-36 87z " />
<glyph unicode="&#xcc;" horiz-adv-x="542" d="M43 1843h160l141 -297h-143zM178 0v1434h187v-1434h-187z" />
<glyph unicode="&#xcd;" horiz-adv-x="542" d="M178 0v1434h187v-1434h-187zM199 1546l143 297h160l-158 -297h-145z" />
<glyph unicode="&#xce;" horiz-adv-x="542" d="M-16 1554l206 289h160l209 -289h-162l-121 177h-12l-119 -177h-161zM178 0v1434h187v-1434h-187z" />
<glyph unicode="&#xcf;" horiz-adv-x="542" d="M-86 1691.5q0 51.5 37 87.5t88 36t87 -36t36 -87.5t-36 -87t-87 -35.5t-88 35.5t-37 87zM178 0v1434h187v-1434h-187zM387 1691.5q0 51.5 36 87.5t85 36q51 0 88 -36t37 -87.5t-37 -87t-88 -35.5q-49 0 -85 35.5t-36 87z" />
<glyph unicode="&#xd0;" horiz-adv-x="1441" d="M-59 645v141h237v648h443q334 0 510 -193.5t176 -523.5q0 -326 -175.5 -521.5t-510.5 -195.5h-443v645h-237zM365 168h245q262 0 384 150.5t122 402.5q0 250 -122 397.5t-384 147.5h-245v-480h362v-141h-362v-477z" />
<glyph unicode="&#xd1;" horiz-adv-x="1511" d="M178 0v1434h203l756 -1119h14v1119h182v-1434h-200l-758 1118h-15v-1118h-182zM403 1550q10 106 62.5 175t144.5 69q53 0 96.5 -20.5t66 -45t52 -45t60.5 -20.5q84 0 96 113h127q-6 -100 -59.5 -171t-145.5 -71q-51 0 -94 20.5t-66.5 44t-54.5 44t-61 20.5 q-82 0 -95 -113h-129z" />
<glyph unicode="&#xd2;" horiz-adv-x="1685" d="M135 717q0 315 203 526t506 211q301 0 503.5 -211t202.5 -526q0 -313 -201.5 -525t-504.5 -212t-506 209.5t-203 527.5zM324 716.5q0 -239.5 149.5 -402t370.5 -162.5t369.5 162.5t148.5 402t-148.5 402.5t-369.5 163t-370.5 -163t-149.5 -402.5zM614 1843h160l141 -297 h-143z" />
<glyph unicode="&#xd3;" horiz-adv-x="1685" d="M135 717q0 315 203 526t506 211q301 0 503.5 -211t202.5 -526q0 -313 -201.5 -525t-504.5 -212t-506 209.5t-203 527.5zM324 716.5q0 -239.5 149.5 -402t370.5 -162.5t369.5 162.5t148.5 402t-148.5 402.5t-369.5 163t-370.5 -163t-149.5 -402.5zM770 1546l143 297h160 l-158 -297h-145z" />
<glyph unicode="&#xd4;" horiz-adv-x="1685" d="M135 717q0 315 203 526t506 211q301 0 503.5 -211t202.5 -526q0 -313 -201.5 -525t-504.5 -212t-506 209.5t-203 527.5zM324 716.5q0 -239.5 149.5 -402t370.5 -162.5t369.5 162.5t148.5 402t-148.5 402.5t-369.5 163t-370.5 -163t-149.5 -402.5zM555 1554l207 289h160 l208 -289h-161l-121 177h-12l-119 -177h-162z" />
<glyph unicode="&#xd5;" horiz-adv-x="1685" d="M135 717q0 315 203 526t506 211q301 0 503.5 -211t202.5 -526q0 -313 -201.5 -525t-504.5 -212t-506 209.5t-203 527.5zM324 716.5q0 -239.5 149.5 -402t370.5 -162.5t369.5 162.5t148.5 402t-148.5 402.5t-369.5 163t-370.5 -163t-149.5 -402.5zM492 1550q10 106 62 175 t144 69q53 0 96.5 -20.5t66 -45t52 -45t60.5 -20.5q84 0 96 113h127q-6 -100 -59.5 -171t-145.5 -71q-51 0 -94 20.5t-66.5 44t-54.5 44t-61 20.5q-82 0 -94 -113h-129z" />
<glyph unicode="&#xd6;" horiz-adv-x="1685" d="M135 717q0 315 203 526t506 211q301 0 503.5 -211t202.5 -526q0 -313 -201.5 -525t-504.5 -212t-506 209.5t-203 527.5zM324 716.5q0 -239.5 149.5 -402t370.5 -162.5t369.5 162.5t148.5 402t-148.5 402.5t-369.5 163t-370.5 -163t-149.5 -402.5zM485 1691.5 q0 51.5 37 87.5t88.5 36t87 -36t35.5 -87.5t-35.5 -87t-87 -35.5t-88.5 35.5t-37 87zM958 1691.5q0 51.5 36 87.5t85 36q51 0 88 -36t37 -87.5t-37 -87t-88 -35.5q-49 0 -85 35.5t-36 87z" />
<glyph unicode="&#xd7;" horiz-adv-x="1134" d="M125 246l334 327l-334 328l106 111l338 -330l336 330l107 -111l-334 -328l334 -327l-109 -109l-334 328l-333 -328z" />
<glyph unicode="&#xd8;" horiz-adv-x="1685" d="M135 717q0 315 203 526t506 211q199 0 366 -100l127 176l123 -86l-131 -182q221 -215 221 -545q0 -313 -201.5 -525t-504.5 -212q-207 0 -373 102l-127 -176l-119 84l131 182q-221 211 -221 545zM317 717q0 -240 144 -400l649 897q-121 74 -266 74q-225 0 -376 -163.5 t-151 -407.5zM573 221q121 -76 271 -76q225 0 375.5 164t150.5 408q0 236 -145 401z" />
<glyph unicode="&#xd9;" horiz-adv-x="1468" d="M178 541v893h187v-881q0 -195 103 -298t269 -103t266.5 103t100.5 298v881h186v-893q0 -270 -151.5 -415.5t-401.5 -145.5q-252 0 -405.5 145t-153.5 416zM506 1843h160l141 -297h-143z" />
<glyph unicode="&#xda;" horiz-adv-x="1468" d="M178 541v893h187v-881q0 -195 103 -298t269 -103t266.5 103t100.5 298v881h186v-893q0 -270 -151.5 -415.5t-401.5 -145.5q-252 0 -405.5 145t-153.5 416zM662 1546l143 297h160l-158 -297h-145z" />
<glyph unicode="&#xdb;" horiz-adv-x="1468" d="M178 541v893h187v-881q0 -195 103 -298t269 -103t266.5 103t100.5 298v881h186v-893q0 -270 -151.5 -415.5t-401.5 -145.5q-252 0 -405.5 145t-153.5 416zM446 1554l207 289h160l209 -289h-162l-121 177h-12l-119 -177h-162z" />
<glyph unicode="&#xdc;" horiz-adv-x="1468" d="M178 541v893h187v-881q0 -195 103 -298t269 -103t266.5 103t100.5 298v881h186v-893q0 -270 -151.5 -415.5t-401.5 -145.5q-252 0 -405.5 145t-153.5 416zM377 1691.5q0 51.5 37 87.5t88 36t87 -36t36 -87.5t-36 -87t-87 -35.5t-88 35.5t-37 87zM850 1691.5 q0 51.5 36 87.5t85 36q51 0 88 -36t37 -87.5t-37 -87t-88 -35.5q-49 0 -85 35.5t-36 87z" />
<glyph unicode="&#xdd;" horiz-adv-x="1327" d="M53 1434h226l378 -553h13l379 553h225l-516 -756v-678h-187v678zM590 1546l143 297h160l-158 -297h-145z" />
<glyph unicode="&#xde;" horiz-adv-x="1263" d="M178 0v1434h180v-285h320q205 0 327.5 -119t122.5 -311q0 -201 -125.5 -318.5t-338.5 -117.5h-306v-283h-180zM358 449h289q139 0 216 71.5t77 196.5t-77 195.5t-201 70.5h-304v-534z" />
<glyph unicode="&#xdf;" horiz-adv-x="1132" d="M143 0v1032q0 199 111 310.5t307 111.5q186 0 297 -98.5t111 -263.5q0 -227 -211 -324v-10q266 -80 266 -375q0 -193 -102.5 -298t-284.5 -105q-92 0 -188 30v140q84 -25 161 -25q113 0 179.5 68.5t66.5 197.5q0 281 -317 281h-90v145h77q125 0 198 64.5t73 181.5 q0 109 -61.5 175.5t-172.5 66.5q-106 0 -175 -67t-69 -200v-1038h-176z" />
<glyph unicode="&#xe0;" horiz-adv-x="1083" d="M86 272q0 139 95 218t253 96l305 28v58q0 106 -55 165.5t-158 59.5q-184 0 -221 -195h-178q16 152 121.5 247t277.5 95q178 0 286 -98t108 -278v-445q-1 -84 79 -84h27v-139h-82q-152 0 -182 131q-119 -152 -338 -151q-152 0 -245 74.5t-93 217.5zM266 278.5 q0 -79.5 51.5 -117.5t131.5 -38q117 0 203.5 66.5t86.5 203.5v90l-247 -24q-104 -10 -165 -55.5t-61 -125zM289 1434h160l141 -297h-144z" />
<glyph unicode="&#xe1;" horiz-adv-x="1083" d="M86 272q0 139 95 218t253 96l305 28v58q0 106 -55 165.5t-158 59.5q-184 0 -221 -195h-178q16 152 121.5 247t277.5 95q178 0 286 -98t108 -278v-445q-1 -84 79 -84h27v-139h-82q-152 0 -182 131q-119 -152 -338 -151q-152 0 -245 74.5t-93 217.5zM266 278.5 q0 -79.5 51.5 -117.5t131.5 -38q117 0 203.5 66.5t86.5 203.5v90l-247 -24q-104 -10 -165 -55.5t-61 -125zM444 1137l144 297h160l-158 -297h-146z" />
<glyph unicode="&#xe2;" horiz-adv-x="1083" d="M86 272q0 139 95 218t253 96l305 28v58q0 106 -55 165.5t-158 59.5q-184 0 -221 -195h-178q16 152 121.5 247t277.5 95q178 0 286 -98t108 -278v-445q-1 -84 79 -84h27v-139h-82q-152 0 -182 131q-119 -152 -338 -151q-152 0 -245 74.5t-93 217.5zM229 1145l207 289h160 l209 -289h-162l-121 176h-12l-119 -176h-162zM266 278.5q0 -79.5 51.5 -117.5t131.5 -38q117 0 203.5 66.5t86.5 203.5v90l-247 -24q-104 -10 -165 -55.5t-61 -125z" />
<glyph unicode="&#xe3;" horiz-adv-x="1083" d="M86 272q0 139 95 218t253 96l305 28v58q0 106 -55 165.5t-158 59.5q-184 0 -221 -195h-178q16 152 121.5 247t277.5 95q178 0 286 -98t108 -278v-445q-1 -84 79 -84h27v-139h-82q-152 0 -182 131q-119 -152 -338 -151q-152 0 -245 74.5t-93 217.5zM164 1141 q10 106 62.5 174.5t144.5 68.5q53 0 96 -20.5t65.5 -45t52 -45t60.5 -20.5q84 0 96 113h127q-6 -100 -59 -171t-145 -71q-51 0 -94.5 20.5t-67 44t-54 44t-61.5 20.5q-82 0 -94 -112h-129zM266 278.5q0 -79.5 51.5 -117.5t131.5 -38q117 0 203.5 66.5t86.5 203.5v90 l-247 -24q-104 -10 -165 -55.5t-61 -125z" />
<glyph unicode="&#xe4;" horiz-adv-x="1083" d="M86 272q0 139 95 218t253 96l305 28v58q0 106 -55 165.5t-158 59.5q-184 0 -221 -195h-178q16 152 121.5 247t277.5 95q178 0 286 -98t108 -278v-445q-1 -84 79 -84h27v-139h-82q-152 0 -182 131q-119 -152 -338 -151q-152 0 -245 74.5t-93 217.5zM219 1255.5 q0 47.5 33 80t80 32.5t79.5 -32.5t32.5 -80t-33.5 -80t-78.5 -32.5t-79 32.5t-34 80zM266 278.5q0 -79.5 51.5 -117.5t131.5 -38q117 0 203.5 66.5t86.5 203.5v90l-247 -24q-104 -10 -165 -55.5t-61 -125zM596 1255q0 47 33 80t78 33q47 0 78.5 -32.5t31.5 -80t-32.5 -80 t-77.5 -32.5t-78 33.5t-33 78.5z" />
<glyph unicode="&#xe5;" horiz-adv-x="1083" d="M86 272q0 139 95 218t253 96l305 28v58q0 106 -55 165.5t-158 59.5q-184 0 -221 -195h-178q16 152 121.5 247t277.5 95q178 0 286 -98t108 -278v-445q-1 -84 79 -84h27v-139h-82q-152 0 -182 131q-119 -152 -338 -151q-152 0 -245 74.5t-93 217.5zM266 278.5 q0 -79.5 51.5 -117.5t131.5 -38q117 0 203.5 66.5t86.5 203.5v90l-247 -24q-104 -10 -165 -55.5t-61 -125zM322 1303q0 80 58 137t138 57t138.5 -57.5t58.5 -136.5q0 -78 -58.5 -136.5t-138.5 -58.5t-138 58.5t-58 136.5zM432 1302.5q0 -36.5 25.5 -63.5t62.5 -27 q35 0 59.5 27t24.5 64q0 35 -25.5 61.5t-58.5 26.5q-37 0 -62.5 -26t-25.5 -62.5z" />
<glyph unicode="&#xe6;" horiz-adv-x="1474" d="M86 260q0 172 122 255t327 83h90v100q0 201 -168 201q-176 0 -187 -174l-172 4q8 150 102.5 232.5t250.5 82.5q195 0 280 -149q90 150 279 149q156 0 255 -118.5t99 -390.5q0 -43 -2 -70h-557q6 -344 203 -344q70 0 124 41t64 135h166q-16 -162 -113.5 -239.5 t-238.5 -77.5q-211 0 -295 163q-80 -164 -318 -163q-143 0 -227 71.5t-84 208.5zM256 274q0 -76 45 -114.5t121 -38.5q82 0 142.5 50t60.5 163v131h-80q-289 0 -289 -191zM805 598h391q0 162 -52 233.5t-136 71.5q-88 0 -142.5 -74.5t-60.5 -230.5z" />
<glyph unicode="&#xe7;" horiz-adv-x="1167" d="M106 506q0 233 143.5 385.5t364.5 152.5q176 0 306.5 -97t156.5 -269h-180q-20 90 -96 149.5t-187 59.5q-143 0 -235 -108.5t-92 -272.5q0 -160 90 -264.5t239 -104.5q221 0 285 197h180q-29 -152 -142.5 -247t-281.5 -105l-49 -72q76 4 138.5 -41t62.5 -129 q0 -78 -54.5 -124t-150.5 -46q-90 0 -149 43l37 82q57 -33 106 -33t76.5 23.5t27.5 60.5t-27.5 61.5t-80.5 24.5q-33 0 -70 -16l-61 51l82 117q-201 25 -320 169t-119 353z" />
<glyph unicode="&#xe8;" horiz-adv-x="1163" d="M106 502q0 244 139.5 393t350.5 149q197 0 327 -133t130 -379q0 -14 -4 -63h-764q8 -154 93 -248t226 -94q100 0 171 44t97 128h175q-33 -152 -152 -235.5t-291 -83.5q-219 0 -358.5 143t-139.5 379zM287 600h592q-2 133 -80 215t-203 82t-210 -85t-99 -212zM367 1434 h159l142 -297h-144z" />
<glyph unicode="&#xe9;" horiz-adv-x="1163" d="M106 502q0 244 139.5 393t350.5 149q197 0 327 -133t130 -379q0 -14 -4 -63h-764q8 -154 93 -248t226 -94q100 0 171 44t97 128h175q-33 -152 -152 -235.5t-291 -83.5q-219 0 -358.5 143t-139.5 379zM287 600h592q-2 133 -80 215t-203 82t-210 -85t-99 -212zM522 1137 l144 297h159l-157 -297h-146z" />
<glyph unicode="&#xea;" horiz-adv-x="1163" d="M106 502q0 244 139.5 393t350.5 149q197 0 327 -133t130 -379q0 -14 -4 -63h-764q8 -154 93 -248t226 -94q100 0 171 44t97 128h175q-33 -152 -152 -235.5t-291 -83.5q-219 0 -358.5 143t-139.5 379zM287 600h592q-2 133 -80 215t-203 82t-210 -85t-99 -212zM307 1145 l207 289h160l209 -289h-162l-121 176h-12l-119 -176h-162z" />
<glyph unicode="&#xeb;" horiz-adv-x="1163" d="M106 502q0 244 139.5 393t350.5 149q197 0 327 -133t130 -379q0 -14 -4 -63h-764q8 -154 93 -248t226 -94q100 0 171 44t97 128h175q-33 -152 -152 -235.5t-291 -83.5q-219 0 -358.5 143t-139.5 379zM287 600h592q-2 133 -80 215t-203 82t-210 -85t-99 -212zM297 1255.5 q0 47.5 32.5 80t80 32.5t80 -32.5t32.5 -80t-33.5 -80t-78.5 -32.5t-79 32.5t-34 80zM674 1255q0 47 32.5 80t77.5 33q47 0 79 -32.5t32 -80t-33 -80t-78 -32.5t-77.5 33.5t-32.5 78.5z" />
<glyph unicode="&#xec;" horiz-adv-x="464" d="M4 1434h160l141 -297h-143zM143 0v1024h179v-1024h-179z" />
<glyph unicode="&#xed;" horiz-adv-x="464" d="M143 0v1024h179v-1024h-179zM160 1137l143 297h160l-158 -297h-145z" />
<glyph unicode="&#xee;" horiz-adv-x="464" d="M-55 1145l207 289h159l209 -289h-162l-120 176h-13l-119 -176h-161zM143 0v1024h179v-1024h-179z" />
<glyph unicode="&#xef;" horiz-adv-x="464" d="M-66 1255.5q0 47.5 33 80t80 32.5t80 -32.5t33 -80t-33 -80t-80 -32.5t-80 32.5t-33 80zM143 0v1024h179v-1024h-179zM311 1255q0 47 33 80t78 33q47 0 78.5 -32.5t31.5 -80t-32.5 -80t-77.5 -32.5t-78 33.5t-33 78.5z" />
<glyph unicode="&#xf0;" horiz-adv-x="1220" d="M106 457q0 211 131.5 341t333.5 130q98 0 180.5 -39t125.5 -96h14q-57 188 -201 354l-323 -103l-33 103l274 88q-113 109 -239 199h209q106 -80 178 -152l207 66l34 -103l-161 -51q250 -297 249 -659q0 -258 -133 -406.5t-362 -148.5q-201 0 -342.5 133t-141.5 344z M272 454.5q0 -141.5 92.5 -232.5t229.5 -91q139 0 227 96.5t88 237.5q0 137 -92 224t-231 87q-141 0 -227.5 -90t-86.5 -231.5z" />
<glyph unicode="&#xf1;" d="M143 0v1024h162l17 -123h14q104 143 297 143q168 0 270.5 -104t102.5 -297v-643h-179v604q0 141 -66.5 212t-172.5 71q-113 0 -189.5 -77t-76.5 -226v-584h-179zM221 1141q10 106 62.5 174.5t144.5 68.5q53 0 96 -20.5t65.5 -45t52.5 -45t60 -20.5q84 0 97 113h127 q-6 -100 -59.5 -171t-145.5 -71q-51 0 -94 20.5t-66.5 44t-54.5 44t-62 20.5q-82 0 -94 -112h-129z" />
<glyph unicode="&#xf2;" horiz-adv-x="1243" d="M106 512q0 231 145.5 381.5t369.5 150.5q221 0 368.5 -151.5t147.5 -380.5t-146.5 -380.5t-369.5 -151.5q-221 0 -368 152.5t-147 379.5zM287 512q0 -156 93 -265.5t240.5 -109.5t242.5 109.5t95 265.5q0 158 -95 266.5t-242 108.5q-150 0 -242 -108.5t-92 -266.5z M393 1434h160l141 -297h-143z" />
<glyph unicode="&#xf3;" horiz-adv-x="1243" d="M106 512q0 231 145.5 381.5t369.5 150.5q221 0 368.5 -151.5t147.5 -380.5t-146.5 -380.5t-369.5 -151.5q-221 0 -368 152.5t-147 379.5zM287 512q0 -156 93 -265.5t240.5 -109.5t242.5 109.5t95 265.5q0 158 -95 266.5t-242 108.5q-150 0 -242 -108.5t-92 -266.5z M549 1137l143 297h160l-158 -297h-145z" />
<glyph unicode="&#xf4;" horiz-adv-x="1243" d="M106 512q0 231 145.5 381.5t369.5 150.5q221 0 368.5 -151.5t147.5 -380.5t-146.5 -380.5t-369.5 -151.5q-221 0 -368 152.5t-147 379.5zM287 512q0 -156 93 -265.5t240.5 -109.5t242.5 109.5t95 265.5q0 158 -95 266.5t-242 108.5q-150 0 -242 -108.5t-92 -266.5z M334 1145l207 289h159l209 -289h-161l-121 176h-13l-118 -176h-162z" />
<glyph unicode="&#xf5;" horiz-adv-x="1243" d="M106 512q0 231 145.5 381.5t369.5 150.5q221 0 368.5 -151.5t147.5 -380.5t-146.5 -380.5t-369.5 -151.5q-221 0 -368 152.5t-147 379.5zM270 1141q10 106 62.5 174.5t144.5 68.5q53 0 96 -20.5t66 -45t52.5 -45t60.5 -20.5q84 0 96 113h127q-6 -100 -59.5 -171 t-145.5 -71q-51 0 -94 20.5t-66.5 44t-54.5 44t-61 20.5q-82 0 -95 -112h-129zM287 512q0 -156 93 -265.5t240.5 -109.5t242.5 109.5t95 265.5q0 158 -95 266.5t-242 108.5q-150 0 -242 -108.5t-92 -266.5z" />
<glyph unicode="&#xf6;" horiz-adv-x="1243" d="M106 512q0 231 145.5 381.5t369.5 150.5q221 0 368.5 -151.5t147.5 -380.5t-146.5 -380.5t-369.5 -151.5q-221 0 -368 152.5t-147 379.5zM287 512q0 -156 93 -265.5t240.5 -109.5t242.5 109.5t95 265.5q0 158 -95 266.5t-242 108.5q-150 0 -242 -108.5t-92 -266.5z M324 1255.5q0 47.5 32.5 80t79.5 32.5t80 -32.5t33 -80t-33 -80t-80 -32.5t-79.5 32.5t-32.5 80zM700 1255q0 47 33 80t78 33q47 0 79 -32.5t32 -80t-33 -80t-78 -32.5t-78 33.5t-33 78.5z" />
<glyph unicode="&#xf7;" horiz-adv-x="1134" d="M92 498v151h952v-151h-952zM446 201q0 51 36 87t87 36q49 0 85 -36t36 -87q0 -49 -36 -85t-85 -36q-51 0 -87 36t-36 85zM446 934q0 51 36 88t87 37q49 0 85 -37t36 -88q0 -47 -36 -84t-85 -37t-86 36t-37 85z" />
<glyph unicode="&#xf8;" horiz-adv-x="1243" d="M106 512q0 231 145.5 381.5t369.5 150.5q145 0 266 -71l106 141l109 -74l-113 -149q147 -152 148 -379q0 -229 -146.5 -380.5t-369.5 -151.5q-147 0 -265 69l-106 -141l-107 74l111 149q-147 152 -148 381zM279 512q0 -141 77 -248l437 582q-76 47 -172 47 q-152 0 -247 -110.5t-95 -270.5zM453 176q74 -45 168 -45q152 0 248 110.5t96 270.5q0 141 -76 246z" />
<glyph unicode="&#xf9;" d="M143 381v643h179v-604q0 -141 66.5 -212t172.5 -71q115 0 190.5 77t75.5 226v584h179v-1024h-162l-17 123h-14q-104 -143 -297 -143q-168 0 -270.5 104t-102.5 297zM346 1434h160l141 -297h-143z" />
<glyph unicode="&#xfa;" d="M143 381v643h179v-604q0 -141 66.5 -212t172.5 -71q115 0 190.5 77t75.5 226v584h179v-1024h-162l-17 123h-14q-104 -143 -297 -143q-168 0 -270.5 104t-102.5 297zM502 1137l143 297h160l-158 -297h-145z" />
<glyph unicode="&#xfb;" d="M143 381v643h179v-604q0 -141 66.5 -212t172.5 -71q115 0 190.5 77t75.5 226v584h179v-1024h-162l-17 123h-14q-104 -143 -297 -143q-168 0 -270.5 104t-102.5 297zM287 1145l207 289h159l209 -289h-162l-120 176h-13l-118 -176h-162z" />
<glyph unicode="&#xfc;" d="M143 381v643h179v-604q0 -141 66.5 -212t172.5 -71q115 0 190.5 77t75.5 226v584h179v-1024h-162l-17 123h-14q-104 -143 -297 -143q-168 0 -270.5 104t-102.5 297zM276 1255.5q0 47.5 33 80t80 32.5t80 -32.5t33 -80t-34 -80t-79 -32.5t-79 32.5t-34 80zM653 1255 q0 47 33 80t78 33q47 0 78.5 -32.5t31.5 -80t-32.5 -80t-77.5 -32.5t-78 33.5t-33 78.5z" />
<glyph unicode="&#xfd;" horiz-adv-x="1087" d="M43 1024h186l316 -838h14l299 838h186l-430 -1184q-12 -37 -23 -60.5t-40 -67.5t-63.5 -71.5t-95 -49t-132.5 -21.5q-63 0 -145 22v138q66 -14 110 -15q158 0 219 152l54 133h-62zM471 1137l143 297h160l-158 -297h-145z" />
<glyph unicode="&#xfe;" horiz-adv-x="1228" d="M143 -410v1864h164v-575h12q119 165 330 165q207 0 339 -148t132 -386q0 -240 -132 -385t-339 -145q-213 0 -327 165v-555h-179zM322 510q0 -166 84 -269.5t221 -103.5q139 0 227 103.5t88 269.5q0 168 -88 272.5t-227 104.5q-137 0 -221 -103.5t-84 -273.5z" />
<glyph unicode="&#xff;" horiz-adv-x="1087" d="M43 1024h186l316 -838h14l299 838h186l-430 -1184q-12 -37 -23 -60.5t-40 -67.5t-63.5 -71.5t-95 -49t-132.5 -21.5q-63 0 -145 22v138q66 -14 110 -15q158 0 219 152l54 133h-62zM246 1255.5q0 47.5 32.5 80t80 32.5t80 -32.5t32.5 -80t-32.5 -80t-80 -32.5t-80 32.5 t-32.5 80zM623 1255q0 47 32.5 80t77.5 33q47 0 79 -32.5t32 -80t-33 -80t-78 -32.5t-77.5 33.5t-32.5 78.5z" />
<glyph unicode="&#x152;" horiz-adv-x="2295" d="M135 716.5q0 319.5 192.5 528.5t481.5 209q152 0 281 -67.5t215 -186.5v234h874v-166h-692v-459h606v-162h-606v-481h713v-166h-895v236q-86 -121 -215 -188.5t-281 -67.5q-291 0 -482.5 208.5t-191.5 528zM324 717q0 -248 139 -406.5t350 -158.5t349 158.5t138 406.5 t-139 406.5t-348 158.5q-211 0 -350 -158.5t-139 -406.5z" />
<glyph unicode="&#x153;" horiz-adv-x="1597" d="M106 512q0 246 115 389t297 143q199 0 311 -172q92 172 299 172q158 0 258.5 -118.5t100.5 -390.5q0 -16 -4 -70h-555q2 -63 7 -109.5t23.5 -107t61 -94t108.5 -33.5q72 0 126.5 41t64.5 135h166q-16 -160 -114.5 -238.5t-237.5 -78.5q-221 0 -308 165 q-113 -166 -307 -165q-180 0 -296 145t-116 387zM287 512q0 -178 62.5 -281.5t169 -103.5t170 103.5t63.5 281.5q0 180 -63.5 282.5t-170.5 102.5q-109 0 -170 -101.5t-61 -283.5zM928 598h391q-1 305 -191 305q-86 0 -140 -74.5t-60 -230.5z" />
<glyph unicode="&#x178;" horiz-adv-x="1327" d="M53 1434h226l378 -553h13l379 553h225l-516 -756v-678h-187v678zM305 1691.5q0 51.5 37 87.5t88 36t87 -36t36 -87.5t-36 -87t-87 -35.5t-88 35.5t-37 87zM778 1691.5q0 51.5 36 87.5t85 36q51 0 88 -36t37 -87.5t-37 -87t-88 -35.5q-49 0 -85 35.5t-36 87z" />
<glyph unicode="&#x2c6;" horiz-adv-x="933" d="M178 1145l207 289h160l209 -289h-162l-121 176h-10l-121 -176h-162z" />
<glyph unicode="&#x2dc;" horiz-adv-x="1062" d="M178 1141q10 106 62.5 174.5t146.5 68.5q53 0 96 -20.5t65.5 -45t52.5 -45t61 -20.5q84 0 96 113h127q-6 -102 -60.5 -172t-146.5 -70q-51 0 -94 20.5t-66.5 44t-53.5 44t-61 20.5q-84 0 -96 -112h-129z" />
<glyph unicode="&#x2000;" horiz-adv-x="953" />
<glyph unicode="&#x2001;" horiz-adv-x="1907" />
<glyph unicode="&#x2002;" horiz-adv-x="953" />
<glyph unicode="&#x2003;" horiz-adv-x="1907" />
<glyph unicode="&#x2004;" horiz-adv-x="635" />
<glyph unicode="&#x2005;" horiz-adv-x="476" />
<glyph unicode="&#x2006;" horiz-adv-x="317" />
<glyph unicode="&#x2007;" horiz-adv-x="317" />
<glyph unicode="&#x2008;" horiz-adv-x="238" />
<glyph unicode="&#x2009;" horiz-adv-x="381" />
<glyph unicode="&#x200a;" horiz-adv-x="105" />
<glyph unicode="&#x2010;" horiz-adv-x="913" d="M82 559v156h752v-156h-752z" />
<glyph unicode="&#x2011;" horiz-adv-x="913" d="M82 559v156h752v-156h-752z" />
<glyph unicode="&#x2012;" horiz-adv-x="913" d="M82 559v156h752v-156h-752z" />
<glyph unicode="&#x2013;" horiz-adv-x="1290" d="M82 563v148h1126v-148h-1126z" />
<glyph unicode="&#x2014;" horiz-adv-x="1665" d="M82 567v140h1501v-140h-1501z" />
<glyph unicode="&#x2018;" horiz-adv-x="462" d="M104 1133q0 203 197 327l49 -63q-111 -90 -112 -189q43 4 76.5 -27.5t33.5 -84.5q0 -55 -34 -89t-85 -34q-59 0 -92 45t-33 115z" />
<glyph unicode="&#x2019;" horiz-adv-x="462" d="M113 1028q111 90 112 191q-43 -4 -76.5 26.5t-33.5 85.5t33.5 89t84.5 34q59 0 92 -45t33 -115q0 -205 -194 -327z" />
<glyph unicode="&#x201a;" horiz-adv-x="497" d="M131 -201q111 90 113 189q-45 -4 -78 27.5t-33 87t33 89t86 33.5q59 0 92 -45t33 -114q0 -207 -197 -328z" />
<glyph unicode="&#x201c;" horiz-adv-x="790" d="M104 1133q0 203 197 327l49 -63q-111 -90 -112 -189q43 4 76.5 -27.5t33.5 -84.5q0 -55 -34 -89t-85 -34q-59 0 -92 45t-33 115zM430 1133q0 203 197 327l49 -63q-111 -90 -113 -189q45 4 78 -27.5t33 -84.5q0 -55 -33 -89t-86 -34q-59 0 -92 45t-33 115z" />
<glyph unicode="&#x201d;" horiz-adv-x="790" d="M113 1028q111 90 112 191q-43 -4 -76.5 26.5t-33.5 85.5t33.5 89t84.5 34q59 0 92 -45t33 -115q0 -205 -194 -327zM440 1028q111 90 113 191q-43 -4 -77 26.5t-34 85.5t33 89t86 34q59 0 92 -45t33 -115q0 -207 -197 -327z" />
<glyph unicode="&#x201e;" horiz-adv-x="823" d="M131 -201q111 90 113 189q-45 -4 -78 27.5t-33 87t33 89t86 33.5q59 0 92 -45t33 -114q0 -207 -197 -328zM457 -201q111 90 112 189q-43 -4 -76.5 27.5t-33.5 87t34 89t85 33.5q59 0 91.5 -45t32.5 -114q0 -207 -196 -328z" />
<glyph unicode="&#x2022;" horiz-adv-x="405" d="M82 635q0 51 36 88t87 37q49 0 85 -37t36 -88q0 -49 -36 -85t-85 -36q-51 0 -87 36t-36 85z" />
<glyph unicode="&#x2026;" horiz-adv-x="1449" d="M125 111q0 51 36 86.5t87 35.5t86 -35.5t35 -86.5q0 -49 -35 -85t-86 -36t-87 35.5t-36 85.5zM602 111q0 51 37 86.5t88 35.5q49 0 84 -35.5t35 -86.5q0 -49 -35 -85t-84 -36q-51 0 -88 35.5t-37 85.5zM1081 111q0 51 36 86.5t87 35.5t86 -35.5t35 -86.5q0 -49 -35 -85 t-86 -36t-87 35.5t-36 85.5z" />
<glyph unicode="&#x202f;" horiz-adv-x="381" />
<glyph unicode="&#x2039;" horiz-adv-x="630" d="M53 610l269 414h202l-272 -414l272 -413h-202z" />
<glyph unicode="&#x203a;" horiz-adv-x="630" d="M106 197l273 413l-273 414h203l269 -414l-269 -413h-203z" />
<glyph unicode="&#x205f;" horiz-adv-x="476" />
<glyph unicode="&#x20ac;" horiz-adv-x="1310" d="M117 416v137h147q-4 66 -4 98q0 61 6 117h-149v139h180q61 197 214 310.5t374 113.5q215 0 358 -94l-55 -135q-143 78 -297 78q-309 0 -414 -273h610l-30 -139h-613q-8 -49 -8 -113q0 -53 6 -102h541l-27 -137h-483q96 -281 418 -281q192 0 319 88l47 -139 q-150 -104 -376 -104q-229 0 -383 115.5t-209 320.5h-172z" />
<glyph unicode="&#x2122;" horiz-adv-x="1597" d="M66 1317v117h542v-117h-207v-600h-131v600h-204zM733 717v717h158l227 -488h8l224 488h157v-717h-129v483h-6l-188 -401h-127l-189 401h-8v-483h-127z" />
<glyph unicode="&#x25fc;" horiz-adv-x="1024" d="M0 0v1024h1024v-1024h-1024z" />
<glyph unicode="&#xfb01;" horiz-adv-x="1200" d="M41 879v145h209v168q0 125 74.5 193.5t203.5 68.5q72 0 136 -22l-31 -140q-33 12 -74 13q-129 0 -129 -129v-152h629v-1024h-180v879h-449v-879h-180v879h-209zM848 1306.5q0 49.5 36 83t85 33.5q47 0 81.5 -33.5t34.5 -83t-34.5 -84t-81.5 -34.5q-49 0 -85 34.5t-36 84z " />
<glyph unicode="&#xfb02;" horiz-adv-x="1200" d="M41 879v145h209v168q0 125 74.5 193.5t203.5 68.5q72 0 136 -22l-31 -140q-33 12 -74 13q-129 0 -129 -129v-152h449v430h180v-1454h-180v879h-449v-879h-180v879h-209z" />
<glyph unicode="&#xfb03;" horiz-adv-x="1845" d="M41 879v145h209v168q0 125 74.5 193.5t203.5 68.5q72 0 136 -22l-31 -140q-33 12 -74 13q-129 0 -129 -129v-152h463v168q0 125 74.5 193.5t203.5 68.5q72 0 136 -22l-31 -140q-29 12 -74 13q-129 0 -129 -129v-152h629v-1024h-180v879h-449v-879h-180v879h-463v-879 h-180v879h-209zM1491 1306.5q0 49.5 36 83t85 33.5t83 -33.5t34 -83t-34 -84t-83 -34.5t-85 34.5t-36 84z" />
<glyph unicode="&#xfb04;" horiz-adv-x="1837" d="M41 879v145h209v168q0 125 74.5 193.5t203.5 68.5q72 0 136 -22l-31 -140q-33 12 -74 13q-129 0 -129 -129v-152h457v168q0 125 74.5 193.5t203.5 68.5q74 0 133 -22l-28 -140q-33 12 -74 13q-131 0 -131 -129v-152h451v430h178v-1454h-178v879h-451v-879h-178v879h-457 v-879h-180v879h-209z" />
</font>
</defs>
</svg>
