<svg width="166" height="192" viewBox="0 0 166 192" fill="none" xmlns="http://www.w3.org/2000/svg">
    <path d="M45.136 0.336914L0.0479736 191.662H25.583L70.671 0.336914H45.136Z" fill="#F4F5F4"/>
    <path d="M116.354 191.662H91.1989C91.1989 170.13 87.2449 160.076 82.6669 148.436C77.8479 136.184 72.3879 122.299 72.3879 95.9989C72.3879 69.6989 77.8479 55.8139 82.6669 43.5619C87.2449 31.9219 91.1989 21.8669 91.1989 0.335938H116.354C116.354 26.6359 110.895 40.5209 106.074 52.7729C101.496 64.4119 97.5409 74.4669 97.5409 95.9989C97.5409 117.531 101.496 127.586 106.074 139.225C110.894 151.478 116.354 165.363 116.354 191.662Z" fill="#F4F5F4"/>
    <path d="M165.951 0.336914H140.816V191.663H165.951V0.336914Z" fill="#F4F5F4"/>
</svg>
