<?xml version="1.0" encoding="UTF-8"?><svg id="Layer_2" xmlns="http://www.w3.org/2000/svg" xmlns:xlink="http://www.w3.org/1999/xlink" viewBox="0 0 1360 246.59"><defs><style>.cls-1{fill:none;}.cls-2{clip-path:url(#clippath);}.cls-3{fill:#272823;}.cls-4{clip-path:url(#clippath-1);}</style><clipPath id="clippath"><rect class="cls-1" width="1360" height="246.59"/></clipPath><clipPath id="clippath-1"><rect class="cls-1" width="1360" height="246.59"/></clipPath></defs><g id="Layer_1-2"><path class="cls-3" d="M262.78,32.64h39.48l23.76,100.79-92.14,21.73,28.89-122.51ZM240.19,.1h0s-2.65,.01-2.65,.01l-58.12,246.48h32.91l13.34-56.58,107.71-25.4,19.33,81.98h32.91l-21.06-89.33-7.35-31.18L327.51,.12h-4.82s-82.51-.01-82.51-.01Z"/><g class="cls-2"><path class="cls-3" d="M834.02,115.85c-1.95,1.44-3.83,2.88-5.64,4.32V31.92h76.24c8.69,0,18.78,6.32,24.52,14.76,3.99,5.85,7.72,15.43,2.86,27.83-5.19,13.22-12.86,15.41-35.22,18.75-18,2.69-40.4,6.04-62.76,22.58m144.79,130.73l-89.93-119.87c4.22-.8,8.42-1.43,12.58-2.05,22.38-3.35,47.74-7.14,60.08-38.55,7.64-19.46,5.39-40.35-6.17-57.31C943.7,11.68,923.78,.18,904.62,.18h-83.46l-24.95,.12,.49,246.27h31.68v-82.04c4.77-6.15,11.95-13.87,24.51-23.17,1.89-1.4,3.79-2.65,5.69-3.81l81.18,109.02h39.04Z"/></g><polygon class="cls-3" points="537.45 .17 472.33 95.22 470.22 95.22 405.09 .17 366.38 .17 455.44 130.07 455.44 246.59 487.47 246.59 487.47 130.07 576.18 .17 537.45 .17"/><polygon class="cls-3" points="603.18 .18 603.18 246.59 762.3 246.59 762.3 218.08 634.51 218.08 634.51 147.46 742.93 121.91 742.87 121.67 743.33 121.56 735.84 89.79 634.51 113.67 634.51 28.69 758.78 28.69 758.78 .18 603.18 .18"/><g class="cls-4"><path class="cls-3" d="M1280.84,246.59h-32.42c0-27.75-5.1-40.71-11-55.71-6.21-15.79-13.25-33.69-13.25-67.58s7.04-51.79,13.25-67.58c5.9-15,11-27.96,11-55.71h32.42c0,33.9-7.04,51.79-13.25,67.58-5.9,15-11,27.96-11,55.71s5.1,40.71,11,55.71c6.21,15.79,13.25,33.69,13.25,67.58"/><path class="cls-3" d="M1360,246.59h-32.42c0-27.75-5.1-40.71-11-55.71-6.21-15.79-13.25-33.69-13.25-67.58s7.04-51.79,13.25-67.58c5.9-15,11-27.96,11-55.71h32.42c0,33.9-7.04,51.79-13.25,67.58-5.9,15-11,27.96-11,55.71s5.1,40.71,11,55.71c6.21,15.79,13.25,33.69,13.25,67.58"/><path class="cls-3" d="M1201.69,246.59h-32.42c0-27.75-5.1-40.71-11-55.71-6.21-15.79-13.25-33.69-13.25-67.58s7.04-51.79,13.25-67.58c5.9-15,11-27.96,11-55.71h32.42c0,33.9-7.04,51.79-13.25,67.58-5.9,15-11,27.96-11,55.71s5.1,40.71,11,55.71c6.21,15.79,13.25,33.69,13.25,67.58"/><path class="cls-3" d="M31.37,164.58V.1H0V167.99C0,211.33,35.27,246.59,78.61,246.59h79.52v-30.51H84.47c-28.39,0-53.11-23.1-53.11-51.5"/></g></g></svg>