<?xml version="1.0" encoding="UTF-8"?>
<svg id="Layer_2" xmlns="http://www.w3.org/2000/svg" xmlns:xlink="http://www.w3.org/1999/xlink"
     viewBox="0 0 970 246.59">
    <defs>
        <style>.cls-1{fill:none;}.cls-2{clip-path:url(#clippath);}.cls-3{fill:#272823;}</style>
        <clipPath id="clippath">
            <rect class="cls-1" y="0" width="970" height="246.59"/>
        </clipPath>
    </defs>
    <g id="Layer_1-2">
        <polygon class="cls-3" points="0 .16 0 246.59 158.07 246.59 158.07 217.73 31.33 217.73 31.33 .16 0 .16"/>
        <polygon class="cls-3"
                 points="524.27 .05 524.27 129.19 524.27 131.63 438.08 131.63 406.89 .05 374.02 .05 412.74 163.26 429.89 163.26 429.89 163.29 468.79 163.29 468.79 246.59 500.78 246.59 500.78 163.29 524.27 163.29 524.27 163.34 524.28 163.34 556.27 163.34 556.27 140.47 556.27 .05 524.27 .05"/>
        <g class="cls-2">
            <path class="cls-3"
                  d="M757.76,29.7V0h-154.58V120.93c0,65.26,16.91,125.66,139.61,125.66h14.97v-29.7h-14.97c-81.87,0-103.15-31.18-108.34-69.58l108.47-25.56-7.6-32.26-102.45,24.14V29.7h124.89Z"/>
            <path class="cls-3"
                  d="M292.2,106.48c-14.04,3.77-29.88,8.05-52.5,24.05l23.05-97.77h12.36c15.98,0,29.87,10.99,33.54,26.55l9.02,38.26c-9.23,4.56-16.92,6.62-25.48,8.92m72.74,51.39l-7.38-31.31-16.93-71.78C333.08,22.73,304.48,.09,271.56,.09h-31.49s0,0,0,0h-2.66l-58.12,246.5h33.05l13.17-55.85,2.19-9.3c4.58-6.14,11.69-14.35,25.76-24.77,20.14-14.9,32.28-18.16,46.34-21.93,7.42-1.99,15.46-4.16,24.73-8.15l1.73,7.34,7.38,31.31,19.18,81.35h33.05l-20.92-88.73Z"/>
        </g>
        <path class="cls-3"
              d="M828.2,88.17V28.28h97.87v47.74l-97.87,21.35v-9.2Zm-31.99,158.33h31.99v-72.4h97.87v72.49h32.03v-104.56l-129.9,.04v-11.85l129.86-28.91V.17h-161.85s0,246.33,0,246.33Z"/>
    </g>
</svg>
