<?xml version="1.0" encoding="UTF-8"?>
<svg id="Layer_2" xmlns="http://www.w3.org/2000/svg" xmlns:xlink="http://www.w3.org/1999/xlink"
     viewBox="0 0 970 246.59">
    <defs>
        <style>
            .cls-1{fill:none;}.cls-2{clip-path:url(#clippath);}.cls-3{fill:#272823;}.cls-4{clip-path:url(#clippath-1);}
        </style>
        <clipPath id="clippath">
            <rect class="cls-1" y="0" width="970" height="246.59"/>
        </clipPath>
        <clipPath id="clippath-1">
            <rect class="cls-1" y="0" width="970" height="246.59"/>
        </clipPath>
    </defs>
    <g id="Layer_1-2">
        <g class="cls-2">
            <path class="cls-3"
                  d="M536.42,.1l-30.01,126.05c-21.32,5.41-66.96,13.45-80.43-9.57-10.71-18.31-7.43-34.65-3.67-51.92,3.79-17.43,9.35-38.05-.31-64.55h-32.92c6.51,19.81,4.93,43.43,1.68,58.35-4.15,19.05-8.86,40.65,5.34,70.42,13.89,29.12,43,36.88,70.1,36.88,11.28,0,22.19-1.35,31.52-3.07l-20.65,83.9h32.78L569.2,.1h-32.78Z"/>
        </g>
        <path class="cls-3"
              d="M283.88,37.78h2.46l38.38,114.09h-79.23l38.38-114.09ZM265.57,.1l-85.92,246.49h34.15l22.53-67.26h97.89l22.54,67.26h34.16L305,.1h-39.43Z"/>
        <polygon class="cls-3"
                 points="603.14 .1 603.14 246.59 762.3 246.59 762.3 218.07 634.47 218.07 634.47 135.32 743.98 135.32 743.98 107.5 634.47 107.5 634.47 28.62 758.77 28.62 758.77 .1 603.14 .1"/>
        <g class="cls-4">
            <path class="cls-3"
                  d="M827.55,27.92V115.25h51.41c15.26,0,27.29-4.05,36.1-12.14,8.8-8.1,13.2-18.72,13.2-31.87,0-13.85-4.4-24.53-13.2-32.05-8.81-7.51-20.84-11.27-36.1-11.27h-51.41Zm143.67,218.67h-35.21l-60.57-103.53h-47.89v103.53h-31.34V.1h86.98c23.7,0,42.43,6.34,56.17,19.01,13.73,12.68,20.6,29.58,20.6,50.71,0,17.37-4.7,31.93-14.09,43.66-9.39,11.74-22.42,19.84-39.09,24.3l64.44,108.81Z"/>
        </g>
        <polygon class="cls-3"
                 points="0 .1 0 223.45 0 246.59 15.58 246.59 31.97 246.59 32.04 246.58 159.55 216.51 152.09 184.82 31.19 213.13 31.19 212.03 31.19 .1 0 .1"/>
    </g>
</svg>
