<svg width="27" height="31" viewBox="0 0 27 31" fill="none" xmlns="http://www.w3.org/2000/svg">
    <path d="M7.17463 0.03125L0 30.4759H4.06326L11.2379 0.03125H7.17463Z" fill="#2B2E34"/>
    <path d="M18.5078 30.476H14.505C14.505 27.0497 13.8758 25.4499 13.1474 23.5977C12.3805 21.6481 11.5117 19.4386 11.5117 15.2536C11.5117 11.0686 12.3805 8.85919 13.1474 6.90959C13.8758 5.05738 14.505 3.45737 14.505 0.03125H18.5078C18.5078 4.21624 17.6392 6.42569 16.872 8.37529C16.1435 10.2274 15.5142 11.8274 15.5142 15.2536C15.5142 18.6799 16.1435 20.2799 16.872 22.132C17.639 24.0817 18.5078 26.2912 18.5078 30.476Z" fill="#2B2E34"/>
    <path d="M26.4 0.03125H22.4004V30.476H26.4V0.03125Z" fill="#2B2E34"/>
</svg>
