<?xml version="1.0" encoding="UTF-8"?><svg id="Layer_2" xmlns="http://www.w3.org/2000/svg" viewBox="0 0 338.1 389.79"><defs><style>.cls-1{fill:#b791f1;}</style></defs><g id="Layer_1-2"><g><polygon class="cls-1" points="91.88 0 0 389.55 52.19 389.55 144.06 0 91.88 0"/><path class="cls-1" d="M236.92,389.55h-51.21c0-43.86-8.08-64.44-17.4-87.96-9.8-24.99-20.83-53.17-20.83-106.82s11.02-81.83,20.83-106.82c9.31-23.77,17.4-44.1,17.4-87.96h51.21c0,53.66-11.03,81.83-20.83,106.82-9.31,23.77-17.39,44.1-17.39,87.96s8.08,64.44,17.39,87.96c9.8,24.99,20.83,53.17,20.83,106.82Z"/><rect class="cls-1" x="286.9" y="0" width="51.21" height="389.79"/></g></g></svg>