<?xml version="1.0" encoding="UTF-8"?><svg id="Layer_1" xmlns="http://www.w3.org/2000/svg" viewBox="0 0 597.56 151.69"><defs><style>.cls-1{fill:#272823;}</style></defs><path class="cls-1" d="M331.7,0l-18.38,77.18c-13.05,3.31-41,8.24-49.25-5.86-6.56-11.21-4.55-21.22-2.25-31.79,2.32-10.67,5.72-23.3-.19-39.53h-20.15c3.99,12.13,3.02,26.59,1.03,35.73-2.54,11.67-5.42,24.89,3.27,43.12,8.51,17.83,26.33,22.58,42.92,22.58,6.91,0,13.58-.83,19.3-1.88l-12.64,51.37h20.07L351.77,0h-20.07Z"/><path class="cls-1" d="M22.15,100.71V0H1.95V102.8c0,26.54,21.59,48.13,48.13,48.13h49.68v-18.68H53.68c-17.38,0-31.53-14.15-31.53-31.53"/><path class="cls-1" d="M152.69,92.93h48.51l-23.5-69.85h-1.51l-23.5,69.85Zm68.13,58l-13.8-41.18h-59.94l-13.8,41.18h-20.91L164.98,0h24.15l52.61,150.92h-20.91Z"/><polygon class="cls-1" points="391.57 133.47 469.83 133.47 469.83 150.93 372.38 150.93 372.38 0 467.68 0 467.68 17.47 391.57 17.47 391.57 65.76 458.62 65.76 458.62 82.8 391.57 82.8 391.57 133.47"/><path class="cls-1" d="M511.21,17.04v53.47h31.48c9.34,0,16.71-2.48,22.1-7.44,5.39-4.96,8.08-11.46,8.08-19.51,0-8.48-2.7-15.02-8.08-19.62-5.39-4.6-12.76-6.9-22.1-6.9h-31.48Zm87.97,133.89h-21.56l-37.09-63.39h-29.32v63.39h-19.19V0h53.25c14.51,0,25.98,3.88,34.39,11.64,8.41,7.76,12.61,18.11,12.61,31.05,0,10.64-2.88,19.55-8.62,26.73-5.75,7.19-13.73,12.15-23.93,14.88l39.46,66.62Z"/></svg>