<?xml version="1.0" encoding="UTF-8"?><svg id="Layer_1" xmlns="http://www.w3.org/2000/svg" viewBox="0 0 598.53 151.69"><defs><style>.cls-1{fill:#272823;}</style></defs><polygon class="cls-1" points="-.16 .75 -.16 151.68 96.08 151.68 96.08 134.1 18.91 134.1 18.91 .75 -.16 .75"/><path class="cls-1" d="M143.09,95.67l17.69-75.04h24.18l14.55,61.73-56.43,13.31Zm80.03,1.29l-4.5-19.1L200.43,.71h-2.95s-50.53,0-50.53,0h0s-1.62,0-1.62,0l-35.59,150.96h20.16l8.17-34.66,65.97-15.55,11.84,50.21h20.16l-12.9-54.72Z"/><polygon class="cls-1" points="330.76 .75 354.47 .75 300.14 80.31 300.14 151.68 280.52 151.68 280.52 80.31 225.97 .75 249.69 .75 289.58 58.97 290.87 58.97 330.76 .75"/><path class="cls-1" d="M510.66,71.52c-1.2,.88-2.34,1.76-3.45,2.64V20.12h46.69c5.32,0,11.5,3.87,15.02,9.04,2.44,3.58,4.73,9.45,1.75,17.04-3.18,8.1-7.87,9.44-21.57,11.49-11.02,1.65-24.74,3.7-38.44,13.83m88.68,80.07l-55.08-73.42c2.58-.49,5.16-.88,7.71-1.26,13.71-2.05,29.24-4.37,36.8-23.61,4.68-11.92,3.3-24.71-3.78-35.1-7.15-10.48-19.35-17.53-31.08-17.53h-51.12l-15.28,.07,.3,150.84h19.4v-50.25c2.92-3.77,7.32-8.5,15.01-14.19,1.16-.86,2.32-1.63,3.49-2.33l49.72,66.77h23.91Z"/><path class="cls-1" d="M465.44,18.99V.82h-94.57V74.8c0,39.93,10.35,76.87,85.41,76.87h9.16v-18.17h-9.16c-50.08,0-63.1-17.25-66.28-40.74l66.36-15.64-4.65-19.74-62.67,14.77V18.99h76.4Z"/></svg>