<?xml version="1.0" encoding="UTF-8"?><svg id="Layer_1" xmlns="http://www.w3.org/2000/svg" viewBox="0 0 590.72 151.69"><defs><style>.cls-1{fill:#272823;}</style></defs><polygon class="cls-1" points=".13 .84 .13 151.76 96.94 151.76 96.94 134.08 19.32 134.08 19.32 .84 .13 .84"/><polygon class="cls-1" points="324.69 .76 324.69 79.86 324.69 81.35 271.9 81.35 252.8 .76 232.67 .76 256.39 100.72 266.89 100.72 266.89 100.74 290.71 100.74 290.71 151.76 310.31 151.76 310.31 100.74 324.69 100.74 324.69 100.77 324.7 100.77 344.29 100.77 344.29 86.77 344.29 .76 324.69 .76"/><path class="cls-1" d="M511.03,54.73V18.06h59.94v29.24l-59.94,13.07v-5.63Zm0,33.01v-7.25l79.53-17.7V.84h-99.12s0,150.86,0,150.86h19.59v-44.34h59.94v44.4h19.61V87.73l-79.56,.02Z"/><path class="cls-1" d="M466.13,18.92V.74h-94.67V74.8c0,39.97,10.36,76.96,85.5,76.96h9.17v-18.19h-9.17c-50.14,0-63.17-17.27-66.35-40.79l66.43-15.65-4.66-19.76-62.74,14.78V18.92h76.49Z"/><path class="cls-1" d="M179.09,65.95c-8.6,2.31-18.3,4.93-32.15,14.73l14.12-59.88h7.57c9.79,0,18.29,6.73,20.54,16.26l5.52,23.43c-5.65,2.79-10.36,4.06-15.6,5.46m44.55,31.47l-4.52-19.17-10.37-43.96C204.13,14.66,186.61,.79,166.45,.79h-19.28s0,0,0,0h-1.63l-35.6,150.97h20.24l8.07-34.21,1.34-5.69c2.8-3.76,7.16-8.79,15.78-15.17,12.33-9.12,19.77-11.12,28.38-13.43,4.54-1.22,9.47-2.55,15.15-4.99l1.06,4.5,4.52,19.17,11.75,49.82h20.24l-12.81-54.34Z"/></svg>