<?xml version="1.0" encoding="UTF-8"?><svg id="Layer_1" xmlns="http://www.w3.org/2000/svg" viewBox="0 0 590.72 151.69"><defs><style>.cls-1{fill:#272823;}</style></defs><polygon class="cls-1" points="0 .77 0 151.69 96.81 151.69 96.81 134.01 19.19 134.01 19.19 .77 0 .77"/><polygon class="cls-1" points="324.56 .69 324.56 79.79 324.56 81.28 271.77 81.28 252.67 .69 232.54 .69 256.25 100.65 266.75 100.65 266.75 100.67 290.58 100.67 290.58 151.69 310.17 151.69 310.17 100.67 324.56 100.67 324.56 100.7 324.57 100.7 344.16 100.7 344.16 86.7 344.16 .69 324.56 .69"/><path class="cls-1" d="M510.89,54.66V17.98h59.94v29.24l-59.94,13.07v-5.63Zm-19.59,96.97h19.59v-44.34h59.94v44.4h19.61V87.66l-79.56,.02v-7.25l79.53-17.71V.77h-99.12s0,150.86,0,150.86Z"/><path class="cls-1" d="M466,18.85V.67h-94.67V74.73c0,39.97,10.36,76.96,85.5,76.96h9.17v-18.19h-9.17c-50.14,0-63.17-17.27-66.35-40.79l66.43-15.65-4.66-19.76-62.74,14.78V18.85h76.49Z"/><path class="cls-1" d="M178.96,65.88c-8.6,2.31-18.3,4.93-32.15,14.73l14.12-59.88h7.57c9.79,0,18.29,6.73,20.54,16.26l5.52,23.43c-5.65,2.79-10.36,4.06-15.6,5.46m44.55,31.47l-4.52-19.17-10.37-43.96C203.99,14.59,186.48,.72,166.32,.72h-19.28s0,0,0,0h-1.63l-35.6,150.97h20.24l8.07-34.21,1.34-5.69c2.8-3.76,7.16-8.79,15.78-15.17,12.33-9.12,19.77-11.12,28.38-13.43,4.54-1.22,9.47-2.54,15.15-4.99l1.06,4.5,4.52,19.17,11.75,49.82h20.24l-12.81-54.34Z"/></svg>