<?xml version="1.0" encoding="UTF-8"?><svg id="Layer_1" xmlns="http://www.w3.org/2000/svg" viewBox="0 0 603.42 151.69"><defs><style>.cls-1{fill:#272823;}</style></defs><path class="cls-1" d="M175.25,23.95h1.51l23.5,69.86h-48.51l23.5-69.86ZM164.04,.88l-52.61,150.93h20.91l13.8-41.18h59.94l13.8,41.18h20.91L188.18,.88h-24.15Z"/><polygon class="cls-1" points="1 .87 1 137.63 1 151.8 10.54 151.8 20.58 151.8 20.62 151.79 98.7 133.38 94.13 113.98 20.62 131.31 20.62 130.64 20.62 .87 1 .87"/><polygon class="cls-1" points="371.96 .87 371.96 151.8 469.42 151.8 469.42 134.34 391.15 134.34 391.15 91.08 457.56 75.44 457.53 75.28 457.81 75.22 453.22 55.76 391.15 70.38 391.15 18.34 467.27 18.34 467.27 .87 371.96 .87"/><polygon class="cls-1" points="331.94 .86 292.05 59.07 290.76 59.07 250.87 .86 227.15 .86 281.7 80.42 281.7 151.79 301.33 151.79 301.33 80.42 355.66 .86 331.94 .86"/><path class="cls-1" d="M511.86,71.63c-1.2,.88-2.34,1.76-3.45,2.64V20.23h46.7c5.32,0,11.5,3.87,15.02,9.04,2.45,3.58,4.73,9.45,1.75,17.05-3.18,8.1-7.87,9.44-21.57,11.49-11.03,1.65-24.74,3.7-38.44,13.83m88.68,80.07l-55.08-73.42c2.58-.49,5.16-.88,7.71-1.26,13.71-2.05,29.24-4.37,36.8-23.61,4.68-11.92,3.3-24.71-3.78-35.1-7.15-10.49-19.35-17.53-31.08-17.53h-51.12l-15.28,.07,.3,150.85h19.4v-50.25c2.92-3.77,7.32-8.5,15.01-14.19,1.16-.86,2.32-1.63,3.49-2.33l49.73,66.77h23.91Z"/></svg>