<svg width="197" height="44" viewBox="0 0 197 44" fill="none" xmlns="http://www.w3.org/2000/svg">
<path d="M76.8429 13.9311C78.0846 14.6527 79.0828 15.7282 79.7099 17.0201C80.4757 18.5062 80.8567 20.1607 80.8179 21.8321C80.8715 23.4881 80.4555 25.1255 79.6179 26.5551C78.8976 27.8856 77.7574 28.9404 76.3749 29.5551C74.8826 30.2961 73.2338 30.6669 71.5679 30.6361C70.5865 30.6411 69.6133 30.4578 68.7009 30.0961C67.7956 29.8115 66.9724 29.3127 66.3009 28.6421V38.0861H60.9409V13.2041H65.5609L66.0229 15.2041C67.8584 13.6474 70.1794 12.7796 72.5859 12.7501C74.0913 12.7074 75.5747 13.1189 76.8429 13.9311ZM73.8839 25.1931C74.3425 24.7845 74.7046 24.2793 74.9443 23.7138C75.184 23.1483 75.2952 22.5367 75.2699 21.9231C75.2939 20.6768 74.8295 19.4705 73.9759 18.5621C73.5733 18.138 73.0844 17.8052 72.5422 17.5861C72 17.3671 71.4171 17.2668 70.8329 17.2921C69.8978 17.253 68.9701 17.4728 68.1519 17.9271C67.3947 18.3387 66.7818 18.9725 66.3959 19.7431V23.8311C66.6743 24.6029 67.1922 25.2655 67.8739 25.7221C68.65 26.2061 69.5483 26.4584 70.4629 26.4491C71.7213 26.4793 72.9441 26.0303 73.8839 25.1931Z" fill="#272822"/>
<path d="M83.963 17.109C84.8005 15.7868 85.9835 14.7187 87.384 14.02C88.9339 13.2456 90.6424 12.8413 92.375 12.839C94.1136 12.7962 95.8338 13.2029 97.369 14.02C98.7485 14.7549 99.8999 15.8541 100.698 17.198C101.485 18.5821 101.899 20.1469 101.899 21.739C101.899 23.3311 101.485 24.896 100.698 26.28C99.9227 27.6424 98.7654 28.7479 97.369 29.46C95.8219 30.2451 94.1099 30.65 92.375 30.641C90.6502 30.6713 88.9418 30.3013 87.384 29.56C85.965 28.8902 84.775 27.8167 83.963 26.474C83.1628 25.026 82.7463 23.3974 82.753 21.743C82.7578 20.1208 83.1741 18.5264 83.963 17.109ZM89.416 25.009C89.7764 25.4363 90.2316 25.7736 90.7453 25.994C91.259 26.2145 91.817 26.3121 92.375 26.279C92.9305 26.2919 93.4822 26.1851 93.9927 25.966C94.5033 25.7469 94.9607 25.4205 95.334 25.009C96.0944 24.093 96.4899 22.9286 96.445 21.739C96.5045 20.5473 96.1071 19.3778 95.334 18.469C94.9595 18.0293 94.4907 17.6795 93.9626 17.4456C93.4344 17.2117 92.8604 17.0998 92.283 17.118C91.7289 17.1146 91.1801 17.2257 90.671 17.4442C90.1618 17.6627 89.7033 17.984 89.324 18.388C88.5654 19.3402 88.1724 20.5323 88.216 21.749C88.179 22.9503 88.6091 24.1192 89.416 25.01V25.009Z" fill="#272822"/>
<path d="M110.585 0.307129V30.1871H105.229V0.307129H110.585Z" fill="#272822"/>
<path d="M132.596 13.6582L121.685 38.1782H116.508L120.583 29.3662L112.814 13.6582H118.914L123.351 23.4672L127.791 13.6582H132.596Z" fill="#272822"/>
<path d="M153.122 13.6578V30.1868C153.128 31.7178 152.641 33.2101 151.733 34.4428C150.784 35.7498 149.508 36.7844 148.033 37.4428C146.438 38.1737 144.702 38.5429 142.948 38.5238C141.731 38.5308 140.518 38.3782 139.341 38.0698C138.481 37.7784 137.647 37.4169 136.847 36.9888C136.028 36.4811 135.254 35.9044 134.534 35.2648L137.679 31.6308C138.357 32.2949 139.137 32.8468 139.989 33.2658C140.885 33.6906 141.865 33.9093 142.856 33.9058C144.073 33.9363 145.268 33.5868 146.277 32.9058C146.726 32.5905 147.088 32.1673 147.33 31.6752C147.573 31.183 147.687 30.6378 147.663 30.0898V27.7248C147.066 28.6247 146.237 29.3465 145.263 29.8138C144.049 30.38 142.72 30.6576 141.38 30.6248C139.879 30.6415 138.404 30.232 137.127 29.4438C135.821 28.6749 134.738 27.5789 133.984 26.2638C133.212 24.9076 132.798 23.3765 132.784 21.8158C132.753 20.2196 133.169 18.6466 133.984 17.2738C134.771 15.9267 135.887 14.8016 137.227 14.0038C138.47 13.2154 139.916 12.8051 141.388 12.8228C142.642 12.8028 143.892 12.9851 145.088 13.3628C146.045 13.6438 146.908 14.1767 147.588 14.9058L148.142 13.6358L153.122 13.6578ZM147.666 23.8288V19.7368C147.31 18.9269 146.691 18.2607 145.91 17.8458C145.033 17.3606 144.045 17.1102 143.043 17.1188C141.813 17.1094 140.625 17.5627 139.714 18.3888C139.255 18.7974 138.893 19.3026 138.654 19.8681C138.414 20.4335 138.303 21.0451 138.328 21.6588C138.32 22.9027 138.805 24.0992 139.679 24.9849C140.553 25.8706 141.742 26.373 142.986 26.3818H143.043C143.972 26.4083 144.891 26.1851 145.704 25.7355C146.517 25.2859 147.195 24.6264 147.666 23.8258V23.8288Z" fill="#272822"/>
<path d="M157.561 17.1089C158.395 15.7613 159.577 14.6634 160.982 13.9309C162.535 13.1551 164.246 12.7508 165.982 12.7499C167.719 12.7089 169.438 13.1156 170.973 13.9309C172.353 14.665 173.505 15.7644 174.302 17.1089C175.086 18.4944 175.5 20.0589 175.502 21.6509C175.544 23.2478 175.128 24.8234 174.302 26.1909C173.556 27.5759 172.391 28.6891 170.973 29.3709C169.427 30.1556 167.716 30.5605 165.982 30.5519C164.256 30.5824 162.547 30.2124 160.988 29.4709C159.568 28.8018 158.378 27.7282 157.567 26.3849C156.717 24.9268 156.301 23.2564 156.367 21.5699C156.345 20.0011 156.758 18.457 157.561 17.1089ZM162.922 25.0089C163.282 25.4364 163.737 25.7739 164.251 25.9944C164.765 26.2149 165.323 26.3123 165.881 26.2789C166.438 26.2933 166.993 26.1872 167.506 25.9681C168.018 25.7489 168.478 25.4218 168.853 25.0089C169.613 24.0929 170.009 22.9285 169.964 21.7389C170.025 20.547 169.627 19.377 168.853 18.4689C168.479 18.0551 168.019 17.7271 167.506 17.5073C166.993 17.2876 166.439 17.1814 165.881 17.1959C165.327 17.1925 164.778 17.3038 164.268 17.5229C163.759 17.742 163.301 18.0641 162.922 18.4689C162.513 18.9059 162.197 19.4205 161.99 19.9822C161.784 20.5439 161.693 21.1413 161.722 21.7389C161.768 22.9291 162.188 24.0746 162.922 25.0129V25.0089Z" fill="#272822"/>
<path d="M194.454 14.2022C194.972 14.6363 195.389 15.1781 195.676 15.7898C195.963 16.4015 196.113 17.0685 196.116 17.7442V30.1902H190.66V19.7412C190.69 19.4082 190.645 19.0727 190.53 18.7589C190.414 18.4451 190.231 18.1608 189.992 17.9264C189.754 17.6921 189.466 17.5135 189.15 17.4035C188.835 17.2935 188.498 17.2548 188.166 17.2902C187.561 17.2853 186.966 17.4431 186.444 17.7469C185.921 18.0507 185.489 18.4895 185.194 19.0172C184.413 20.3333 184.027 21.8467 184.083 23.3762V30.1902H178.733V13.6592H183.633L184.003 16.2912C184.623 15.2272 185.517 14.349 186.592 13.7482C187.784 13.1082 189.123 12.795 190.475 12.8402C191.924 12.7863 193.342 13.2715 194.454 14.2022Z" fill="#272822"/>
<path d="M38.011 13.386C37.53 13.1196 36.9893 12.9798 36.4395 12.9798C35.8897 12.9798 35.3489 13.1196 34.868 13.386L27.656 17.566L22.766 20.29L15.543 24.467C15.0628 24.7356 14.5217 24.8767 13.9715 24.8767C13.4212 24.8767 12.8802 24.7356 12.4 24.467L6.66698 21.203C6.20071 20.9359 5.81123 20.5531 5.5362 20.0915C5.26116 19.6299 5.10988 19.1052 5.09698 18.568V12.116C5.09079 11.5748 5.2341 11.0425 5.51111 10.5775C5.78813 10.1126 6.18811 9.73315 6.66698 9.48099L12.309 6.30299C12.7892 6.03437 13.3302 5.89332 13.8805 5.89332C14.4307 5.89332 14.9718 6.03437 15.452 6.30299L21.091 9.48099C21.5574 9.74811 21.9472 10.1309 22.2227 10.5924C22.4982 11.0539 22.6502 11.5787 22.664 12.116V16.293L27.564 13.477V9.31399C27.5702 8.77283 27.4269 8.24045 27.1498 7.77552C26.8728 7.31059 26.4728 6.93115 25.994 6.67899L15.543 0.66699C15.0628 0.398367 14.5217 0.257324 13.9715 0.257324C13.4212 0.257324 12.8802 0.398367 12.4 0.66699L1.76698 6.66699C1.28534 6.91948 0.883256 7.30072 0.605524 7.76826C0.327793 8.23579 0.185319 8.77126 0.193976 9.31499V21.392C0.187735 21.9335 0.331353 22.4663 0.608954 22.9313C0.886555 23.3963 1.28733 23.7755 1.76698 24.027L12.4 30.02C12.8802 30.2886 13.4212 30.4297 13.9715 30.4297C14.5217 30.4297 15.0628 30.2886 15.543 30.02L22.766 25.92L27.657 23.094L34.869 19.006C35.3499 18.7396 35.8907 18.5998 36.4405 18.5998C36.9903 18.5998 37.531 18.7396 38.012 19.006L43.651 22.186C44.1179 22.452 44.5082 22.8341 44.7841 23.2952C45.06 23.7563 45.2122 24.2808 45.226 24.818V31.273C45.232 31.8141 45.0883 32.3463 44.8107 32.8108C44.5331 33.2753 44.1324 33.654 43.653 33.905L38.011 37.173C37.5308 37.4416 36.9897 37.5827 36.4395 37.5827C35.8892 37.5827 35.3482 37.4416 34.868 37.173L29.226 33.992C28.7597 33.7249 28.3702 33.3421 28.0952 32.8805C27.8202 32.4189 27.6689 31.8942 27.656 31.357V27.191L22.766 30.007V34.173C22.7594 34.7146 22.9029 35.2475 23.1805 35.7125C23.4581 36.1776 23.8591 36.5568 24.339 36.808L34.961 42.82C35.4412 43.0886 35.9822 43.2297 36.5325 43.2297C37.0827 43.2297 37.6238 43.0886 38.104 42.82L48.736 36.827C49.2026 36.5601 49.5925 36.1774 49.8681 35.7158C50.1436 35.2542 50.2955 34.7294 50.309 34.192V22.114C50.3145 21.5726 50.1706 21.0401 49.8931 20.5752C49.6156 20.1103 49.2152 19.731 48.736 19.479L38.011 13.386Z" fill="#272822"/>
</svg>
