<svg width="150" height="34" viewBox="0 0 150 34" fill="none" xmlns="http://www.w3.org/2000/svg">
<path d="M59.16 11.0393C60.1055 11.5888 60.8656 12.4078 61.3432 13.3916C61.9263 14.5233 62.2164 15.7831 62.1869 17.0558C62.2277 18.3169 61.9109 19.5637 61.2731 20.6524C60.7246 21.6655 59.8563 22.4687 58.8036 22.9368C57.6672 23.5011 56.4117 23.7834 55.1431 23.76C54.3958 23.7638 53.6547 23.6242 52.9599 23.3488C52.2706 23.1321 51.6437 22.7523 51.1324 22.2416V29.4331H47.0508V10.4857H50.5689L50.9207 12.0087C52.3184 10.8233 54.0858 10.1625 55.9183 10.14C57.0647 10.1075 58.1942 10.4209 59.16 11.0393ZM56.9067 19.6152C57.2559 19.3041 57.5317 18.9193 57.7142 18.4888C57.8967 18.0582 57.9814 17.5924 57.9622 17.1251C57.9805 16.1761 57.6268 15.2575 56.9768 14.5658C56.6702 14.2428 56.2979 13.9894 55.885 13.8226C55.4722 13.6558 55.0283 13.5794 54.5834 13.5987C53.8714 13.569 53.165 13.7363 52.5419 14.0822C51.9653 14.3956 51.4986 14.8783 51.2047 15.4651V18.5781C51.4167 19.1658 51.8111 19.6703 52.3302 20.018C52.9212 20.3866 53.6052 20.5787 54.3017 20.5716C55.2599 20.5946 56.1911 20.2528 56.9067 19.6152Z" fill="#727566"/>
<path d="M64.5826 13.4599C65.2203 12.4531 66.1212 11.6397 67.1877 11.1077C68.3679 10.518 69.6689 10.2102 70.9883 10.2084C72.3122 10.1758 73.6221 10.4855 74.7911 11.1077C75.8416 11.6673 76.7184 12.5044 77.3261 13.5277C77.9254 14.5817 78.2405 15.7733 78.2405 16.9857C78.2405 18.1981 77.9254 19.3896 77.3261 20.4436C76.7358 21.481 75.8545 22.3228 74.7911 22.8651C73.613 23.463 72.3094 23.7713 70.9883 23.7644C69.6748 23.7875 68.3739 23.5057 67.1877 22.9413C66.1071 22.4312 65.2009 21.6138 64.5826 20.5913C63.9733 19.4887 63.6561 18.2485 63.6612 16.9887C63.6648 15.7534 63.9818 14.5393 64.5826 13.4599ZM68.735 19.4757C69.0095 19.8011 69.3561 20.0579 69.7472 20.2258C70.1384 20.3937 70.5633 20.468 70.9883 20.4428C71.4112 20.4526 71.8313 20.3713 72.2201 20.2045C72.6089 20.0376 72.9572 19.7891 73.2415 19.4757C73.8205 18.7782 74.1217 17.8915 74.0875 16.9857C74.1328 16.0782 73.8302 15.1876 73.2415 14.4956C72.9563 14.1607 72.5994 13.8944 72.1972 13.7163C71.795 13.5382 71.3578 13.4529 70.9182 13.4668C70.4963 13.4642 70.0784 13.5488 69.6906 13.7152C69.3029 13.8816 68.9537 14.1263 68.665 14.4339C68.0872 15.159 67.788 16.0668 67.8212 16.9933C67.793 17.9081 68.1205 18.7982 68.735 19.4765V19.4757Z" fill="#727566"/>
<path d="M84.8549 0.666016V23.4193H80.7764V0.666016H84.8549Z" fill="#727566"/>
<path d="M101.616 10.832L93.3069 29.5038H89.3647L92.4678 22.7935L86.5518 10.832H91.1969L94.5756 18.3015L97.9566 10.832H101.616Z" fill="#727566"/>
<path d="M117.246 10.8323V23.419C117.251 24.5848 116.88 25.7212 116.188 26.6599C115.466 27.6552 114.494 28.443 113.371 28.9443C112.157 29.5009 110.834 29.782 109.499 29.7675C108.572 29.7729 107.649 29.6567 106.752 29.4218C106.098 29.1999 105.462 28.9246 104.853 28.5986C104.229 28.212 103.64 27.7728 103.092 27.2858L105.486 24.5185C106.003 25.0242 106.597 25.4445 107.246 25.7636C107.928 26.0871 108.674 26.2536 109.429 26.2509C110.355 26.2742 111.266 26.008 112.034 25.4894C112.376 25.2494 112.652 24.9271 112.836 24.5524C113.02 24.1776 113.108 23.7624 113.089 23.3451V21.5442C112.635 22.2295 112.003 22.7791 111.262 23.1349C110.337 23.5661 109.325 23.7775 108.305 23.7525C107.162 23.7653 106.039 23.4534 105.066 22.8532C104.071 22.2677 103.247 21.4331 102.673 20.4316C102.085 19.3989 101.77 18.233 101.759 17.0445C101.736 15.829 102.052 14.6312 102.673 13.5858C103.272 12.5601 104.122 11.7033 105.142 11.0958C106.089 10.4954 107.19 10.183 108.311 10.1964C109.266 10.1812 110.217 10.3201 111.128 10.6076C111.857 10.8216 112.514 11.2275 113.032 11.7826L113.454 10.8155L117.246 10.8323ZM113.091 18.5774V15.4614C112.82 14.8447 112.349 14.3374 111.754 14.0214C111.086 13.652 110.334 13.4613 109.571 13.4678C108.635 13.4606 107.73 13.8058 107.036 14.4349C106.687 14.746 106.411 15.1308 106.229 15.5614C106.046 15.9919 105.961 16.4577 105.981 16.925C105.974 17.8722 106.344 18.7833 107.009 19.4578C107.675 20.1322 108.58 20.5148 109.528 20.5215H109.571C110.278 20.5417 110.978 20.3717 111.597 20.0294C112.217 19.687 112.732 19.1848 113.091 18.5751V18.5774Z" fill="#727566"/>
<path d="M120.626 13.4602C121.261 12.434 122.161 11.5979 123.231 11.0401C124.414 10.4494 125.717 10.1415 127.039 10.1408C128.362 10.1096 129.671 10.4193 130.839 11.0401C131.89 11.5991 132.767 12.4363 133.374 13.4602C133.972 14.5152 134.286 15.7065 134.288 16.9188C134.32 18.1349 134.003 19.3347 133.374 20.376C132.806 21.4307 131.919 22.2784 130.839 22.7975C129.662 23.3951 128.359 23.7034 127.039 23.6969C125.725 23.7201 124.423 23.4384 123.236 22.8737C122.155 22.3642 121.249 21.5466 120.631 20.5237C119.984 19.4134 119.667 18.1414 119.717 16.8572C119.701 15.6626 120.015 14.4868 120.626 13.4602ZM124.709 19.4759C124.983 19.8015 125.33 20.0585 125.721 20.2264C126.112 20.3943 126.537 20.4684 126.962 20.443C127.387 20.454 127.808 20.3732 128.199 20.2063C128.59 20.0394 128.94 19.7903 129.225 19.4759C129.804 18.7784 130.105 17.8917 130.071 16.9859C130.117 16.0782 129.815 15.1873 129.225 14.4958C128.94 14.1807 128.59 13.9309 128.2 13.7636C127.809 13.5963 127.387 13.5154 126.962 13.5264C126.54 13.5238 126.122 13.6086 125.734 13.7754C125.346 13.9422 124.997 14.1875 124.709 14.4958C124.398 14.8286 124.156 15.2205 123.999 15.6482C123.842 16.0759 123.773 16.5308 123.795 16.9859C123.83 17.8922 124.15 18.7645 124.709 19.479V19.4759Z" fill="#727566"/>
<path d="M148.72 11.2465C149.115 11.577 149.432 11.9896 149.651 12.4554C149.869 12.9212 149.984 13.4291 149.986 13.9437V23.4212H145.831V15.4644C145.854 15.2107 145.82 14.9553 145.732 14.7163C145.644 14.4774 145.504 14.2609 145.323 14.0824C145.141 13.9039 144.922 13.7679 144.682 13.6842C144.441 13.6004 144.185 13.571 143.932 13.598C143.472 13.5942 143.019 13.7143 142.621 13.9457C142.222 14.177 141.894 14.5111 141.669 14.913C141.074 15.9152 140.78 17.0676 140.823 18.2324V23.4212H136.749V10.833H140.48L140.762 12.8372C141.234 12.0269 141.915 11.3582 142.734 10.9008C143.641 10.4134 144.661 10.1749 145.69 10.2093C146.794 10.1682 147.874 10.5378 148.72 11.2465Z" fill="#727566"/>
<path d="M29.5905 10.6253C29.2243 10.4224 28.8125 10.316 28.3938 10.316C27.9752 10.316 27.5634 10.4224 27.1972 10.6253L21.7053 13.8083L17.9816 15.8826L12.4814 19.0633C12.1157 19.2679 11.7037 19.3753 11.2847 19.3753C10.8657 19.3753 10.4537 19.2679 10.088 19.0633L5.72238 16.5778C5.36732 16.3745 5.07073 16.083 4.8613 15.7315C4.65186 15.38 4.53666 14.9804 4.52684 14.5713V9.65819C4.52213 9.24609 4.63125 8.8407 4.8422 8.48666C5.05315 8.13262 5.35773 7.84367 5.72238 7.65166L10.0187 5.23165C10.3844 5.02709 10.7964 4.91969 11.2154 4.91969C11.6344 4.91969 12.0464 5.02709 12.4121 5.23165L16.7061 7.65166C17.0613 7.85507 17.3581 8.14654 17.5679 8.49799C17.7777 8.84944 17.8934 9.24901 17.9039 9.65819V12.8389L21.6352 10.6946V7.52449C21.6399 7.1124 21.5308 6.707 21.3199 6.35296C21.1089 5.99892 20.8043 5.70998 20.4397 5.51796L12.4814 0.939886C12.1157 0.735333 11.7037 0.62793 11.2847 0.62793C10.8657 0.62793 10.4537 0.735333 10.088 0.939886L1.99108 5.50883C1.62431 5.70109 1.31813 5.99141 1.10664 6.34743C0.895153 6.70345 0.78666 7.1112 0.793252 7.52525V16.7218C0.7885 17.1341 0.897864 17.5398 1.10925 17.8939C1.32064 18.248 1.62583 18.5368 1.99108 18.7283L10.088 23.2919C10.4537 23.4965 10.8657 23.6039 11.2847 23.6039C11.7037 23.6039 12.1157 23.4965 12.4814 23.2919L17.9816 20.1698L21.706 18.0178L27.1979 14.9049C27.5641 14.702 27.9759 14.5955 28.3946 14.5955C28.8133 14.5955 29.2251 14.702 29.5913 14.9049L33.8853 17.3264C34.2409 17.529 34.5381 17.8199 34.7482 18.171C34.9583 18.5221 35.0742 18.9216 35.0847 19.3306V24.246C35.0893 24.6581 34.9798 25.0634 34.7684 25.4171C34.557 25.7708 34.2519 26.0592 33.8868 26.2503L29.5905 28.7388C29.2248 28.9434 28.8128 29.0508 28.3938 29.0508C27.9748 29.0508 27.5628 28.9434 27.1972 28.7388L22.9008 26.3165C22.5458 26.1132 22.2492 25.8217 22.0397 25.4702C21.8303 25.1187 21.7151 24.7191 21.7053 24.31V21.1376L17.9816 23.282V26.4544C17.9766 26.8668 18.0858 27.2726 18.2973 27.6267C18.5087 27.9809 18.814 28.2696 19.1794 28.4609L27.268 33.039C27.6336 33.2435 28.0457 33.3509 28.4647 33.3509C28.8837 33.3509 29.2957 33.2435 29.6613 33.039L37.7575 28.4754C38.1128 28.2721 38.4098 27.9807 38.6196 27.6292C38.8294 27.2777 38.945 26.8781 38.9553 26.4688V17.2716C38.9596 16.8593 38.85 16.4538 38.6386 16.0998C38.4273 15.7458 38.1224 15.4569 37.7575 15.265L29.5905 10.6253Z" fill="#727566"/>
</svg>
