<svg width="34" height="34" viewBox="0 0 34 34" fill="none" xmlns="http://www.w3.org/2000/svg">
    <g clip-path="url(#clip0_178_22)">
        <path d="M21.255 14.5712C21.255 14.761 21.255 14.8979 21.255 15.0359C21.255 16.6431 21.252 18.2503 21.2581 19.8576C21.2591 20.2056 21.1739 20.4937 20.8142 20.6074C20.4636 20.718 20.2457 20.5191 20.0582 20.2502C18.8149 18.4665 17.5624 16.6878 16.3281 14.8979C16.1568 14.6504 15.9775 14.5641 15.6816 14.5651C12.5726 14.5753 9.46263 14.5722 6.35367 14.5712C4.99679 14.5712 4.27832 13.8468 4.27832 12.482C4.27832 9.01396 4.27832 5.54689 4.27832 2.07881C4.27731 0.741495 5.00895 0.00079908 6.3334 -0.000215573C13.4492 -0.00123023 20.5659 -0.00123023 27.6817 -0.000215573C29.0082 -0.000215573 29.7418 0.740481 29.7429 2.07373C29.7429 5.54182 29.7429 9.00889 29.7429 12.477C29.7429 13.8488 29.0295 14.5702 27.6706 14.5702C25.6864 14.5712 23.7012 14.5702 21.7171 14.5702C21.5803 14.5702 21.4435 14.5702 21.254 14.5702L21.255 14.5712Z" fill="#727566"/>
        <path d="M4.52112 25.9404C1.94923 23.8787 2.61804 20.7972 3.98505 19.4538C5.58716 17.879 8.3678 17.8395 9.96789 19.3969C10.9164 20.3193 11.2893 21.4699 11.2376 22.7686C11.194 23.8543 10.809 24.5362 9.49465 25.9526C10.4371 26.3341 11.2944 26.8506 11.9824 27.5893C13.1437 28.8383 13.8612 30.3156 13.9828 32.0294C14.077 33.3596 13.4234 33.9978 12.0858 33.9978C8.72349 33.9978 5.36119 33.9978 1.99888 33.9978C0.504188 33.9978 -0.202118 33.2043 0.0502065 31.7189C0.501148 29.0706 1.86208 27.0931 4.3904 26.0176C4.436 25.9983 4.47653 25.9668 4.52213 25.9394L4.52112 25.9404Z" fill="#727566"/>
        <path d="M29.5766 25.8664C30.2677 26.3402 31.0338 26.7674 31.6823 27.3305C33.025 28.4974 33.7131 30.0427 33.9816 31.7838C34.0049 31.933 34.0009 32.0872 33.9988 32.2384C33.9826 33.3738 33.3594 33.9948 32.2204 33.9968C29.5401 33.9998 26.8598 33.9978 24.1805 33.9978C23.3586 33.9978 22.5368 34.0019 21.715 33.9968C20.6418 33.9897 19.9903 33.3484 20.0541 32.28C20.2233 29.4136 21.6167 27.3529 24.1997 26.0998C24.2899 26.0561 24.3831 26.0155 24.4743 25.9729C24.4845 25.9679 24.4916 25.9547 24.525 25.9181C23.306 24.9431 22.6594 23.6869 22.7952 22.103C22.8915 20.9778 23.3374 20.0017 24.2088 19.2549C25.9275 17.7816 28.7122 17.9501 30.1805 19.607C31.5465 21.1483 31.8809 24.0329 29.5786 25.8664H29.5766Z" fill="#727566"/>
    </g>
    <defs>
        <clipPath id="clip0_178_22">
            <rect width="34" height="34" fill="white"/>
        </clipPath>
    </defs>
</svg>
