<svg width="36" height="24" viewBox="0 0 36 24" fill="none" xmlns="http://www.w3.org/2000/svg">
    <g clip-path="url(#clip0_163_66)">
        <path d="M36.0002 18.9842C35.945 19.6903 35.9531 20.4084 35.8201 21.1005C35.511 22.7174 34.3514 23.787 32.6699 23.9548C31.802 24.0417 30.9106 23.9837 30.0355 23.9168C29.3324 23.8629 28.7378 23.5044 28.2066 23.0499C27.0337 22.0482 25.8731 21.0306 24.6716 20.0638C20.3833 16.6123 14.3378 16.8 10.2644 20.5002C9.39553 21.2902 8.55322 22.1082 7.70273 22.9171C6.98427 23.5992 6.12866 23.9827 5.12772 23.9857C4.39084 23.9877 3.63553 24.0077 2.91911 23.8709C1.55075 23.6102 -0.0212746 22.4248 0.000217964 20.1567C0.0237574 17.7208 0.213096 15.296 0.567212 12.8831C0.912116 10.5321 1.40849 8.2191 2.27331 5.99198C2.77378 4.70365 3.4073 3.48522 4.29054 2.39962C5.74077 0.61992 7.62802 -0.10814 9.92875 0.124559C11.0013 0.23242 12.0616 0.398206 13.0145 0.916536C13.4893 1.1752 13.9745 1.46583 14.346 1.84534C16.1626 3.69695 19.6864 3.65001 21.5808 1.89128C23.5878 0.0276844 26.0123 -0.445704 28.6457 0.412188C30.3016 0.951491 31.4039 2.16892 32.3045 3.56911C33.592 5.57053 34.2982 7.79365 34.8263 10.0757C35.5038 13.0059 35.8211 15.9801 36.0002 18.9832V18.9842ZM10.6257 7.2174C10.6257 6.68009 10.6585 6.18074 10.6114 5.68937C10.5889 5.45168 10.464 5.18602 10.3003 5.00725C10.0925 4.78154 9.77932 4.76157 9.48457 4.8944C9.1806 5.03122 9.00764 5.26492 9.00354 5.59749C8.99843 6.1288 9.00252 6.66112 9.00252 7.2184C8.69241 7.2184 8.4386 7.2184 8.18478 7.2184C7.91664 7.2184 7.64849 7.21141 7.38137 7.22139C6.86964 7.24037 6.53395 7.58193 6.55237 8.05532C6.56977 8.49575 6.88806 8.79536 7.38137 8.80635C7.9105 8.81833 8.44064 8.80934 8.9974 8.80934C8.9974 9.35963 8.97386 9.846 9.00764 10.3284C9.02299 10.5491 9.10896 10.7958 9.24406 10.9696C9.44772 11.2312 9.7742 11.2652 10.0833 11.1573C10.4282 11.0375 10.6145 10.7738 10.6206 10.4133C10.6298 9.89294 10.6226 9.37261 10.6226 8.80934C11.1681 8.80934 11.6758 8.81533 12.1814 8.80735C12.7136 8.79936 13.0636 8.48676 13.0728 8.03035C13.081 7.56395 12.7125 7.22639 12.1732 7.2194C11.6768 7.2134 11.1804 7.2184 10.6247 7.2184L10.6257 7.2174ZM27.7839 6.41444C27.7819 5.53657 27.0501 4.82349 26.1484 4.82149C25.257 4.8195 24.5058 5.55455 24.516 6.41943C24.5263 7.29929 25.2673 8.02136 26.1546 8.01537C27.0542 8.00938 27.786 7.2903 27.7839 6.41444ZM25.3328 8.80635C25.3287 7.92848 24.5908 7.2144 23.6922 7.2194C22.7977 7.22339 22.0638 7.94546 22.0628 8.82332C22.0618 9.68721 22.8284 10.4293 23.7075 10.4163C24.6082 10.4033 25.3358 9.68221 25.3328 8.80735V8.80635ZM30.2371 8.81234C30.232 7.93148 29.4992 7.2174 28.6006 7.2194C27.7051 7.22139 26.9662 7.94446 26.9672 8.81733C26.9682 9.68721 27.7102 10.4103 28.6068 10.4153C29.4911 10.4203 30.2412 9.68221 30.2361 8.81234H30.2371ZM27.785 11.2013C27.7757 10.3204 27.0399 9.61031 26.1413 9.6163C25.2468 9.62129 24.5089 10.3514 24.516 11.2222C24.5232 12.0941 25.2693 12.8132 26.1638 12.8122C27.0511 12.8112 27.7942 12.0731 27.785 11.2013Z" fill="#727566"/>
    </g>
    <defs>
        <clipPath id="clip0_163_66">
            <rect width="36" height="24" fill="white"/>
        </clipPath>
    </defs>
</svg>
