<svg width="30" height="30" viewBox="0 0 30 30" fill="none" xmlns="http://www.w3.org/2000/svg">
    <g clip-path="url(#clip0_147_387)">
        <path d="M13.7076 30.0002C13.1575 29.923 12.5996 29.8741 12.0546 29.7686C7.1213 28.806 3.55436 26.0597 1.35893 21.5634C0.312865 19.4142 -0.0952277 17.1184 0.0184185 14.7403C0.320614 8.51685 4.62884 3.14794 10.665 1.46469C13.5785 0.651373 16.4713 0.77234 19.3873 1.73493C19.2995 1.83274 19.2401 1.9151 19.1626 1.97687C18.3155 2.65892 17.9771 3.5443 18.0727 4.615C18.1011 4.95216 18.0778 5.29705 18.0778 5.6754C15.0817 4.70251 12.2044 4.91613 9.46913 6.44238C7.41833 7.58772 5.92544 9.26325 5.0111 11.4175C3.278 15.4969 4.2724 20.3228 7.88325 23.3779C11.1919 26.1756 15.8436 26.6183 19.612 24.5361C21.8436 23.3032 23.4295 21.481 24.3284 19.0925C25.2246 16.7169 25.2091 14.3233 24.3619 11.8782C24.5841 11.8782 24.7726 11.8808 24.9612 11.8782C25.3925 11.8705 25.8238 11.8679 26.2526 11.8448C26.8208 11.8113 27.2728 11.5307 27.6603 11.137C27.8591 10.9362 28.0425 10.7226 28.2362 10.5167L28.3318 10.5424C28.4919 11.1189 28.6779 11.6929 28.8071 12.2771C30.4059 19.4142 26.4954 26.5745 19.6146 29.1097C18.3594 29.573 17.0628 29.8561 15.7248 29.9487C15.6396 29.9539 15.5544 29.9822 15.4691 30.0002H13.705H13.7076Z" fill="#727566"/>
        <path d="M22.1792 12.3413C23.574 15.5585 22.7087 19.7924 19.2967 22.186C16.1999 24.3583 11.809 24.1884 8.85421 21.3366C6.10604 18.6831 5.47324 14.3591 7.71775 10.9566C9.86153 7.7059 13.9683 6.42416 17.5766 7.82687C17.5042 7.90408 17.4422 7.97615 17.3751 8.04049C16.5021 8.91043 15.6342 9.78552 14.7509 10.6452C14.6398 10.7533 14.4565 10.8356 14.2989 10.8485C11.9252 11.0647 10.187 12.7737 9.97518 15.1184C9.75822 17.5197 11.6179 19.7795 14.0277 20.0369C16.812 20.3329 19.1134 18.3279 19.2322 15.5122C19.2373 15.368 19.3148 15.193 19.4156 15.0875C20.2576 14.2279 21.1151 13.3837 21.9674 12.5343C22.0294 12.4725 22.094 12.4159 22.1792 12.3361V12.3413Z" fill="#727566"/>
        <path d="M23.8735 9.71097C23.2459 9.71097 22.6182 9.7187 21.9906 9.70583C21.7969 9.70325 21.6651 9.76245 21.5283 9.89886C19.5704 11.8575 17.6075 13.8084 15.6496 15.7671C15.3836 16.0348 15.0917 16.2329 14.6966 16.1995C13.8804 16.13 13.4697 15.2266 13.9501 14.5574C14.0354 14.439 14.1413 14.3361 14.2446 14.2331C16.1688 12.3131 18.0956 10.3905 20.025 8.47556C20.1903 8.31084 20.2575 8.14612 20.2549 7.9119C20.242 6.68163 20.2446 5.45137 20.2549 4.2211C20.2549 4.08984 20.304 3.92254 20.3918 3.83503C21.5696 2.64594 22.7525 1.46458 23.9458 0.290935C24.4701 -0.226395 25.307 -0.0179192 25.4981 0.658985C25.5317 0.779953 25.5343 0.908642 25.5369 1.03476C25.5601 2.0514 25.5885 3.06547 25.5988 4.08212C25.5988 4.30861 25.6712 4.38067 25.901 4.38325C26.9213 4.39354 27.9389 4.42443 28.9592 4.43987C29.4008 4.44502 29.7469 4.5943 29.9252 5.0164C30.1034 5.44365 29.9536 5.79368 29.6436 6.10253C28.4839 7.25559 27.332 8.41122 26.1671 9.55655C26.0767 9.64663 25.914 9.70325 25.7848 9.70583C25.1468 9.72127 24.5115 9.71355 23.8735 9.71355V9.71097Z" fill="#727566"/>
    </g>
    <defs>
        <clipPath id="clip0_147_387">
            <rect width="30" height="30" fill="white"/>
        </clipPath>
    </defs>
</svg>
