<svg width="30" height="30" viewBox="0 0 30 30" fill="none" xmlns="http://www.w3.org/2000/svg">
    <g clip-path="url(#clip0_147_355)">
        <path d="M10.4958 29.9999H1.87695V14.1516C3.28554 14.615 4.68382 14.6794 6.08983 14.3267C7.51386 13.9714 8.70871 13.2377 9.63833 12.0869C12.2392 15.3771 17.8169 15.3462 20.3636 12.1075C22.501 14.4657 25.1276 14.9986 28.143 14.1799V29.9999H19.5834C19.5731 29.8738 19.5576 29.7502 19.5576 29.624C19.5576 26.7638 19.5576 23.9036 19.5576 21.0434C19.5576 20.1861 19.1585 19.7871 18.3087 19.7871C16.1224 19.7871 13.9336 19.7871 11.7473 19.7871C10.8538 19.7871 10.4701 20.1732 10.4701 21.0743C10.4701 23.9448 10.4701 26.8127 10.4701 29.6832C10.4701 29.7888 10.4881 29.8943 10.4984 29.9999H10.4958Z" fill="#727566"/>
        <path d="M0 8.84051C0.0978541 8.1969 0.203433 7.55329 0.290987 6.90968C0.59485 4.68536 0.890987 2.45846 1.1897 0.234141C1.2 0.156908 1.22318 0.0848236 1.2412 0.00244141H8.57253V0.357715C8.57253 3.09435 8.53391 5.82841 8.58541 8.56504C8.61889 10.2487 7.82318 11.3377 6.36052 11.971C4.73562 12.6764 3.11846 12.5735 1.59399 11.6415C0.787983 11.1498 0.234335 10.4495 0.0463519 9.49699C0.0412017 9.47125 0.0154506 9.45065 0 9.42748C0 9.23182 0 9.03617 0 8.84051Z" fill="#727566"/>
        <path d="M12.6055 30.0001V21.9473H17.4132V30.0001H12.6055Z" fill="#727566"/>
        <path d="M19.2957 0.00794554C19.2957 0.141817 19.2957 0.257667 19.2957 0.373517C19.2957 3.10758 19.2597 5.84421 19.3086 8.5757C19.3369 10.2311 18.5644 11.3252 17.1223 11.9431C15.209 12.7617 13.3781 12.5687 11.7532 11.1991C11.0914 10.6404 10.7283 9.89896 10.7258 9.01593C10.7232 6.07591 10.7258 3.1359 10.7258 0.19588C10.7258 0.139242 10.7309 0.08003 10.7361 0.00537109H19.2957V0.00794554Z" fill="#727566"/>
        <path d="M21.4611 0H28.6379C28.7384 0.651334 28.8362 1.29495 28.9341 1.93856C29.2766 4.19634 29.6088 6.45413 29.9667 8.70935C30.08 9.42247 29.892 10.0455 29.5006 10.617C28.8852 11.5155 27.9967 12.0278 26.9538 12.2595C25.3058 12.6276 23.7864 12.347 22.486 11.2194C21.8242 10.6453 21.4482 9.90904 21.4482 9.01056C21.4482 6.08084 21.4482 3.15112 21.4482 0.221402C21.4482 0.154467 21.456 0.0901056 21.4611 0.00257444V0Z" fill="#727566"/>
    </g>
    <defs>
        <clipPath id="clip0_147_355">
            <rect width="30" height="30" fill="white"/>
        </clipPath>
    </defs>
</svg>
