<svg width="35" height="35" viewBox="0 0 35 35" fill="none" xmlns="http://www.w3.org/2000/svg">
    <g clip-path="url(#clip0_163_68)">
        <path d="M17.5028 15.2534C22.7051 15.2534 27.9074 15.2512 33.1086 15.2545C34.2804 15.2545 35.0848 16.0703 34.9923 17.1762C34.9703 17.4429 34.8702 17.7175 34.7514 17.9609C33.0536 21.453 31.3514 24.9418 29.6404 28.4272C28.9736 29.7865 27.4728 29.9332 26.5298 28.7473C26.2811 28.4339 26.039 28.1138 25.7871 27.8037C24.9244 26.7434 23.5512 26.8201 22.8195 27.9826C21.5453 30.0043 20.2877 32.036 19.0157 34.0599C18.5041 34.8735 17.6502 35.2247 16.8635 34.8501C16.4806 34.6679 16.112 34.3244 15.8831 33.9599C14.0577 31.0446 12.2697 28.106 10.4663 25.1774C9.98211 24.3905 9.33293 24.0548 8.5407 24.2371C8.24471 24.3049 7.95863 24.4738 7.70445 24.6506C7.32044 24.9162 6.97715 25.2407 6.60084 25.5197C5.69638 26.1921 4.52454 25.9587 3.98758 24.9629C2.71562 22.6033 1.45575 20.2382 0.222296 17.8575C-0.434594 16.5883 0.435757 15.2568 1.89588 15.2557C6.1233 15.2501 10.3507 15.2534 14.5781 15.2534C15.553 15.2534 16.5268 15.2534 17.5017 15.2534H17.5028Z" fill="#727566"/>
        <path d="M31.5199 13.8227H22.7471C22.7405 13.6815 22.7295 13.5493 22.7295 13.4159C22.7295 10.285 22.7273 7.15522 22.7295 4.02433C22.7295 2.4461 23.9673 1.64143 25.3967 2.29495C27.0306 3.04183 28.6525 3.81427 30.2898 4.55337C31.1447 4.93903 31.5276 5.58033 31.5232 6.51282C31.5122 8.81236 31.5199 11.1119 31.5199 13.4115V13.8227Z" fill="#727566"/>
        <path d="M18.4616 5.33266C18.0732 5.33266 17.6903 5.31932 17.3095 5.33488C15.6811 5.40046 14.364 6.69082 14.3189 8.34018C14.2738 9.98732 14.3035 11.6367 14.3002 13.2849C14.3002 13.4483 14.3002 13.6128 14.3002 13.8351H10.0728V13.3683C10.0728 9.5861 10.0717 5.80502 10.0728 2.02282C10.0728 0.68911 10.755 0.00335822 12.0742 0.00224679C13.5828 0.00113536 15.0913 -0.00219892 16.5998 0.00224679C17.8036 0.00558108 18.5122 0.724675 18.5155 1.94391C18.5188 3.02422 18.5133 4.10453 18.51 5.18484C18.51 5.2104 18.4935 5.23596 18.4616 5.33155V5.33266Z" fill="#727566"/>
        <path d="M8.62835 13.8173H4.44824C4.44824 13.6528 4.44824 13.505 4.44824 13.3572C4.44824 10.6409 4.44824 7.92454 4.44824 5.20821C4.44824 3.88783 5.14584 3.18763 6.45742 3.18652C7.16933 3.18652 7.88123 3.18652 8.62725 3.18652V13.8173H8.62835Z" fill="#727566"/>
        <path d="M21.3018 6.76756V13.8107H15.765C15.7463 13.7796 15.721 13.7562 15.721 13.734C15.7177 11.9479 15.7001 10.1619 15.721 8.37691C15.7309 7.58113 16.368 6.81869 17.1382 6.78424C18.5158 6.72311 19.8989 6.76756 21.3007 6.76756H21.3018Z" fill="#727566"/>
    </g>
    <defs>
        <clipPath id="clip0_163_68">
            <rect width="35" height="35" fill="white"/>
        </clipPath>
    </defs>
</svg>
