<svg width="30" height="30" viewBox="0 0 30 30" fill="none" xmlns="http://www.w3.org/2000/svg">
    <g clip-path="url(#clip0_147_375)">
        <path d="M24.6137 11.0942H18.8902C17.9878 11.0942 17.0855 11.0968 16.1831 11.0968C12.6967 11.0968 9.20779 11.0968 5.72141 11.0968H5.72643L0.00292969 11.0942V16.8225C0.00292969 19.3056 0.00292969 21.7861 0.00292969 24.2691V29.9974H24.6163V24.2691V24.2741C24.6163 21.7886 24.6163 19.303 24.6112 16.8175L24.6163 16.8225V11.0942H24.6137ZM18.3548 13.6754C19.2874 13.6703 20.2199 13.6703 21.1525 13.6754C21.6577 13.6779 22.0348 14.0527 22.0348 14.5332C22.0348 15.0137 21.6602 15.3785 21.1525 15.3911C21.1424 15.3911 21.1324 15.3911 21.1248 15.3911H19.7248C19.2673 15.3911 18.8098 15.3961 18.3548 15.3911C17.8345 15.3835 17.4499 15.0062 17.46 14.5181C17.4675 14.0402 17.8471 13.6779 18.3573 13.6754H18.3548ZM10.0172 14.6263C10.0172 15.7131 10.0197 16.7999 10.0172 17.8867C10.0172 18.4779 9.66527 18.8251 9.07205 18.8276C8.14704 18.8301 7.22455 18.8276 6.29954 18.8276C5.38458 18.8276 4.46962 18.8276 3.55467 18.8276C2.92375 18.8276 2.57939 18.4879 2.57939 17.859C2.57939 16.7823 2.57939 15.703 2.57939 14.6263C2.57939 14.0175 2.92626 13.6729 3.53959 13.6729C5.37955 13.6729 7.21701 13.6729 9.05697 13.6729C9.67029 13.6729 10.0172 14.0175 10.0197 14.6263H10.0172ZM6.01047 23.1244C6.01047 23.5924 5.64348 23.9722 5.15584 23.9798C4.5752 23.9898 3.99455 23.9924 3.41642 23.9798C2.93632 23.9697 2.57184 23.5747 2.57939 23.1093C2.58693 22.6565 2.9514 22.2842 3.41893 22.2691C3.71303 22.259 4.00963 22.2691 4.30373 22.2691C4.59028 22.2691 4.87432 22.2615 5.16087 22.2691C5.646 22.2842 6.01298 22.659 6.01298 23.1269L6.01047 23.1244ZM9.06703 27.4188C8.14202 27.4188 7.21952 27.4188 6.29451 27.4188C5.37955 27.4188 4.4646 27.4188 3.55215 27.4188C2.97151 27.4188 2.5819 27.0741 2.57687 26.5659C2.57436 26.0552 2.96648 25.703 3.53959 25.703C5.37704 25.703 7.21701 25.703 9.05446 25.703C9.63008 25.703 10.0197 26.0603 10.0147 26.571C10.0096 27.0716 9.62254 27.4188 9.06451 27.4213L9.06703 27.4188ZM10.2736 23.9823C9.99706 23.9873 9.72308 23.9823 9.44658 23.9823C9.16003 23.9823 8.87599 23.9898 8.58944 23.9823C8.10431 23.9697 7.7323 23.5974 7.72978 23.132C7.72476 22.654 8.1018 22.2741 8.60452 22.2666C9.16506 22.259 9.72811 22.259 10.2886 22.2666C10.7914 22.2741 11.1684 22.6515 11.1634 23.1295C11.1584 23.61 10.7838 23.9722 10.2761 23.9823H10.2736ZM15.4642 23.9823C14.8835 23.9949 14.3029 23.9949 13.7248 23.9823C13.2447 23.9722 12.8752 23.5823 12.8802 23.1169C12.8852 22.6515 13.2572 22.2817 13.7424 22.2691C14.0264 22.2615 14.3129 22.2691 14.5995 22.2691C14.886 22.2691 15.1701 22.2615 15.4566 22.2691C15.9443 22.2817 16.3113 22.654 16.3138 23.1219C16.3163 23.5898 15.9493 23.9747 15.4667 23.9848L15.4642 23.9823ZM18.3599 18.8301C17.8345 18.8276 17.4524 18.4527 17.4575 17.9647C17.4625 17.4766 17.8446 17.1194 18.3749 17.1144C18.8425 17.1118 19.3075 17.1144 19.775 17.1144C20.2426 17.1144 20.6699 17.1118 21.1173 17.1144C21.6477 17.1194 22.0297 17.4766 22.0348 17.9672C22.0373 18.4578 21.6577 18.8301 21.1299 18.8326C20.2074 18.8376 19.2824 18.8376 18.3599 18.8326V18.8301Z" fill="#727566"/>
        <path d="M22.0285 9.18744C23.1999 8.87549 24.3737 8.56103 25.5451 8.24656C26.0478 8.11071 26.548 7.97486 27.0633 7.8365C26.9099 7.27046 26.7692 6.73964 26.6184 6.18115C22.8655 7.18744 19.1378 8.18618 15.4102 9.18744H22.0285Z" fill="#727566"/>
        <path d="M8.28443 15.4141V17.0971H4.31543V15.4141H8.28443Z" fill="#727566"/>
        <path d="M28.5641 13.4542C28.353 12.6592 28.1418 11.8642 27.9307 11.0692C27.7924 10.5485 27.6517 10.0303 27.5084 9.50195C27.1615 9.59503 26.8247 9.6856 26.4854 9.77617V19.273C26.9076 19.1548 27.3073 19.0592 27.6818 18.9133C27.7019 18.9057 27.7221 18.8931 27.7422 18.8856L29.9994 18.1963L28.5641 13.4542Z" fill="#727566"/>
        <path d="M1.87216 8.87044C1.88724 8.95094 1.90233 9.02893 1.92495 9.11195C1.93249 9.13962 1.94003 9.16729 1.95008 9.18994H8.77455C13.9652 7.80126 19.1533 6.41006 24.3414 5.01635C24.9446 4.85535 25.5479 4.68931 26.1763 4.51824C25.9978 3.85409 25.8395 3.21761 25.656 2.59119C25.6434 2.54591 25.6258 2.50314 25.6107 2.46038L24.9346 0L21.7297 0.971069C20.8349 1.20755 19.9425 1.44906 19.0502 1.69057C14.7243 2.85031 10.3958 4.01258 6.0699 5.17233L1.20605 6.41006L1.85457 8.86792C1.85457 8.86792 1.86714 8.86792 1.87468 8.86792L1.87216 8.87044Z" fill="#727566"/>
    </g>
    <defs>
        <clipPath id="clip0_147_375">
            <rect width="30" height="30" fill="white"/>
        </clipPath>
    </defs>
</svg>
